<svg width="708" height="713" viewBox="0 0 708 713" fill="none" xmlns="http://www.w3.org/2000/svg">
<g opacity="0.18" filter="url(#filter0_f_0_1)">
<g clip-path="url(#paint0_diamond_0_1_clip_path)" data-figma-skip-parse="true"><g transform="matrix(-0.108443 0.496437 -0.508676 -0.105834 472.475 165.562)"><rect x="0" y="0" width="1127.43" height="841.524" fill="url(#paint0_diamond_0_1)" opacity="1" shape-rendering="crispEdges"/><rect x="0" y="0" width="1127.43" height="841.524" transform="scale(1 -1)" fill="url(#paint0_diamond_0_1)" opacity="1" shape-rendering="crispEdges"/><rect x="0" y="0" width="1127.43" height="841.524" transform="scale(-1 1)" fill="url(#paint0_diamond_0_1)" opacity="1" shape-rendering="crispEdges"/><rect x="0" y="0" width="1127.43" height="841.524" transform="scale(-1)" fill="url(#paint0_diamond_0_1)" opacity="1" shape-rendering="crispEdges"/></g></g><path fill-rule="evenodd" clip-rule="evenodd" d="M361.102 51.6459C404.367 54.0961 447.435 67.1715 482.979 91.9515C516.73 115.481 528.955 158.731 557.374 188.478C588.883 221.459 640.078 235.622 659.612 276.837C679.474 318.744 684.164 372.214 664.324 414.132C644.269 456.503 579.347 459.359 554.429 499.067C524.991 545.977 561.378 633.058 511.64 657.437C462.104 681.716 415.726 601.568 361.102 593.825C316.514 587.505 274.214 624.994 229.81 617.486C182.197 609.435 129.096 591.236 103.541 550.276C77.5801 508.666 106.14 453.374 97.3217 405.133C88.9629 359.403 40.249 319.343 53.1666 274.686C66.2921 229.309 129.1 220.281 160.898 185.342C190.248 153.093 196.123 101.978 232.389 77.7601C269.255 53.1412 316.839 49.1392 361.102 51.6459Z" data-figma-gradient-fill="{&#34;type&#34;:&#34;GRADIENT_DIAMOND&#34;,&#34;stops&#34;:[{&#34;color&#34;:{&#34;r&#34;:0.088979363441467285,&#34;g&#34;:0.70120084285736084,&#34;b&#34;:0.66446757316589355,&#34;a&#34;:1.0},&#34;position&#34;:0.0},{&#34;color&#34;:{&#34;r&#34;:0.034518480300903320,&#34;g&#34;:0.27018952369689941,&#34;b&#34;:0.87620085477828979,&#34;a&#34;:1.0},&#34;position&#34;:1.0}],&#34;stopsVar&#34;:[],&#34;transform&#34;:{&#34;m00&#34;:-216.88618469238281,&#34;m01&#34;:-1017.3526611328125,&#34;m02&#34;:1089.5941162109375,&#34;m10&#34;:992.8750,&#34;m11&#34;:-211.66786193847656,&#34;m12&#34;:-225.04106140136719},&#34;opacity&#34;:1.0,&#34;blendMode&#34;:&#34;NORMAL&#34;,&#34;visible&#34;:true}"/>
</g>
<g filter="url(#filter1_d_0_1)">
<rect x="168" y="115" width="392" height="474" rx="10" fill="white"/>
<rect x="168.5" y="115.5" width="391" height="473" rx="9.5" stroke="#1A8FE3" stroke-opacity="0.5"/>
</g>
<path d="M262.728 171V153.12H268.56C270.448 153.12 272.088 153.504 273.48 154.272C274.888 155.024 275.976 156.072 276.744 157.416C277.512 158.744 277.896 160.288 277.896 162.048C277.896 163.792 277.512 165.344 276.744 166.704C275.976 168.048 274.888 169.104 273.48 169.872C272.088 170.624 270.448 171 268.56 171H262.728ZM265.992 168.12H268.632C269.848 168.12 270.896 167.872 271.776 167.376C272.672 166.864 273.368 166.16 273.864 165.264C274.36 164.352 274.608 163.28 274.608 162.048C274.608 160.8 274.36 159.728 273.864 158.832C273.368 157.936 272.672 157.24 271.776 156.744C270.896 156.248 269.848 156 268.632 156H265.992V168.12ZM286.614 171.288C285.334 171.288 284.166 170.992 283.11 170.4C282.07 169.808 281.238 169 280.614 167.976C280.006 166.952 279.702 165.784 279.702 164.472C279.702 163.16 280.006 161.992 280.614 160.968C281.238 159.944 282.07 159.136 283.11 158.544C284.15 157.952 285.318 157.656 286.614 157.656C287.894 157.656 289.054 157.952 290.094 158.544C291.134 159.136 291.958 159.944 292.566 160.968C293.19 161.976 293.502 163.144 293.502 164.472C293.502 165.784 293.19 166.952 292.566 167.976C291.942 169 291.11 169.808 290.07 170.4C289.03 170.992 287.878 171.288 286.614 171.288ZM286.614 168.408C287.318 168.408 287.934 168.24 288.462 167.904C289.006 167.568 289.43 167.104 289.734 166.512C290.054 165.904 290.214 165.224 290.214 164.472C290.214 163.704 290.054 163.032 289.734 162.456C289.43 161.864 289.006 161.4 288.462 161.064C287.934 160.712 287.318 160.536 286.614 160.536C285.894 160.536 285.262 160.712 284.718 161.064C284.174 161.4 283.742 161.864 283.422 162.456C283.118 163.032 282.966 163.704 282.966 164.472C282.966 165.224 283.118 165.904 283.422 166.512C283.742 167.104 284.174 167.568 284.718 167.904C285.262 168.24 285.894 168.408 286.614 168.408ZM295.886 171V157.944H298.838V160.512L298.598 160.056C298.902 159.272 299.398 158.68 300.086 158.28C300.79 157.864 301.606 157.656 302.534 157.656C303.494 157.656 304.342 157.864 305.078 158.28C305.83 158.696 306.414 159.28 306.83 160.032C307.246 160.768 307.454 161.624 307.454 162.6V171H304.31V163.344C304.31 162.768 304.198 162.272 303.974 161.856C303.75 161.44 303.438 161.12 303.038 160.896C302.654 160.656 302.198 160.536 301.67 160.536C301.158 160.536 300.702 160.656 300.302 160.896C299.902 161.12 299.59 161.44 299.366 161.856C299.142 162.272 299.03 162.768 299.03 163.344V171H295.886ZM314.072 171.288C313.16 171.288 312.368 171.136 311.696 170.832C311.024 170.528 310.504 170.096 310.136 169.536C309.768 168.96 309.584 168.296 309.584 167.544C309.584 166.824 309.744 166.184 310.064 165.624C310.384 165.048 310.88 164.568 311.552 164.184C312.224 163.8 313.072 163.528 314.096 163.368L318.368 162.672V165.072L314.696 165.696C314.072 165.808 313.608 166.008 313.304 166.296C313 166.584 312.848 166.96 312.848 167.424C312.848 167.872 313.016 168.232 313.352 168.504C313.704 168.76 314.136 168.888 314.648 168.888C315.304 168.888 315.88 168.752 316.376 168.48C316.888 168.192 317.28 167.8 317.552 167.304C317.84 166.808 317.984 166.264 317.984 165.672V162.312C317.984 161.752 317.76 161.288 317.312 160.92C316.88 160.536 316.304 160.344 315.584 160.344C314.912 160.344 314.312 160.528 313.784 160.896C313.272 161.248 312.896 161.72 312.656 162.312L310.088 161.064C310.344 160.376 310.744 159.784 311.288 159.288C311.848 158.776 312.504 158.376 313.256 158.088C314.008 157.8 314.824 157.656 315.704 157.656C316.776 157.656 317.72 157.856 318.536 158.256C319.352 158.64 319.984 159.184 320.432 159.888C320.896 160.576 321.128 161.384 321.128 162.312V171H318.152V168.768L318.824 168.72C318.488 169.28 318.088 169.752 317.624 170.136C317.16 170.504 316.632 170.792 316.04 171C315.448 171.192 314.792 171.288 314.072 171.288ZM329.752 171.144C328.28 171.144 327.136 170.744 326.32 169.944C325.52 169.128 325.12 167.984 325.12 166.512V160.752H322.864V157.944H323.104C323.744 157.944 324.24 157.776 324.592 157.44C324.944 157.104 325.12 156.616 325.12 155.976V154.968H328.264V157.944H331.264V160.752H328.264V166.344C328.264 166.776 328.336 167.144 328.48 167.448C328.64 167.752 328.88 167.984 329.2 168.144C329.536 168.304 329.96 168.384 330.472 168.384C330.584 168.384 330.712 168.376 330.856 168.36C331.016 168.344 331.168 168.328 331.312 168.312V171C331.088 171.032 330.832 171.064 330.544 171.096C330.256 171.128 329.992 171.144 329.752 171.144ZM333.714 171V157.944H336.858V171H333.714ZM333.714 156.48V153.12H336.858V156.48H333.714ZM346.145 171.288C344.865 171.288 343.697 170.992 342.641 170.4C341.601 169.808 340.769 169 340.145 167.976C339.537 166.952 339.233 165.784 339.233 164.472C339.233 163.16 339.537 161.992 340.145 160.968C340.769 159.944 341.601 159.136 342.641 158.544C343.681 157.952 344.849 157.656 346.145 157.656C347.425 157.656 348.585 157.952 349.625 158.544C350.665 159.136 351.489 159.944 352.097 160.968C352.721 161.976 353.033 163.144 353.033 164.472C353.033 165.784 352.721 166.952 352.097 167.976C351.473 169 350.641 169.808 349.601 170.4C348.561 170.992 347.409 171.288 346.145 171.288ZM346.145 168.408C346.849 168.408 347.465 168.24 347.993 167.904C348.537 167.568 348.961 167.104 349.265 166.512C349.585 165.904 349.745 165.224 349.745 164.472C349.745 163.704 349.585 163.032 349.265 162.456C348.961 161.864 348.537 161.4 347.993 161.064C347.465 160.712 346.849 160.536 346.145 160.536C345.425 160.536 344.793 160.712 344.249 161.064C343.705 161.4 343.273 161.864 342.953 162.456C342.649 163.032 342.497 163.704 342.497 164.472C342.497 165.224 342.649 165.904 342.953 166.512C343.273 167.104 343.705 167.568 344.249 167.904C344.793 168.24 345.425 168.408 346.145 168.408ZM355.417 171V157.944H358.369V160.512L358.129 160.056C358.433 159.272 358.929 158.68 359.617 158.28C360.321 157.864 361.137 157.656 362.065 157.656C363.025 157.656 363.873 157.864 364.609 158.28C365.361 158.696 365.945 159.28 366.361 160.032C366.777 160.768 366.985 161.624 366.985 162.6V171H363.841V163.344C363.841 162.768 363.729 162.272 363.505 161.856C363.281 161.44 362.969 161.12 362.569 160.896C362.185 160.656 361.729 160.536 361.201 160.536C360.689 160.536 360.233 160.656 359.833 160.896C359.433 161.12 359.121 161.44 358.897 161.856C358.673 162.272 358.561 162.768 358.561 163.344V171H355.417ZM372.709 171L378.877 153.12H383.101L389.269 171H385.717L384.445 167.16H377.533L376.237 171H372.709ZM378.469 164.28H383.509L380.533 155.376H381.445L378.469 164.28ZM390.995 171V157.944H393.947V160.968L393.611 160.464C393.851 159.52 394.331 158.816 395.051 158.352C395.771 157.888 396.619 157.656 397.595 157.656C398.667 157.656 399.611 157.936 400.427 158.496C401.243 159.056 401.771 159.792 402.011 160.704L401.123 160.776C401.523 159.736 402.123 158.96 402.923 158.448C403.723 157.92 404.643 157.656 405.683 157.656C406.611 157.656 407.435 157.864 408.155 158.28C408.891 158.696 409.467 159.28 409.883 160.032C410.299 160.768 410.507 161.624 410.507 162.6V171H407.363V163.344C407.363 162.768 407.259 162.272 407.051 161.856C406.843 161.44 406.555 161.12 406.187 160.896C405.819 160.656 405.371 160.536 404.843 160.536C404.347 160.536 403.907 160.656 403.523 160.896C403.139 161.12 402.843 161.44 402.635 161.856C402.427 162.272 402.323 162.768 402.323 163.344V171H399.179V163.344C399.179 162.768 399.075 162.272 398.867 161.856C398.659 161.44 398.363 161.12 397.979 160.896C397.611 160.656 397.171 160.536 396.659 160.536C396.163 160.536 395.723 160.656 395.339 160.896C394.955 161.12 394.659 161.44 394.451 161.856C394.243 162.272 394.139 162.768 394.139 163.344V171H390.995ZM419.551 171.288C418.271 171.288 417.103 170.992 416.047 170.4C415.007 169.808 414.175 169 413.551 167.976C412.943 166.952 412.639 165.784 412.639 164.472C412.639 163.16 412.943 161.992 413.551 160.968C414.175 159.944 415.007 159.136 416.047 158.544C417.087 157.952 418.255 157.656 419.551 157.656C420.831 157.656 421.991 157.952 423.031 158.544C424.071 159.136 424.895 159.944 425.503 160.968C426.127 161.976 426.439 163.144 426.439 164.472C426.439 165.784 426.127 166.952 425.503 167.976C424.879 169 424.047 169.808 423.007 170.4C421.967 170.992 420.815 171.288 419.551 171.288ZM419.551 168.408C420.255 168.408 420.871 168.24 421.399 167.904C421.943 167.568 422.367 167.104 422.671 166.512C422.991 165.904 423.151 165.224 423.151 164.472C423.151 163.704 422.991 163.032 422.671 162.456C422.367 161.864 421.943 161.4 421.399 161.064C420.871 160.712 420.255 160.536 419.551 160.536C418.831 160.536 418.199 160.712 417.655 161.064C417.111 161.4 416.679 161.864 416.359 162.456C416.055 163.032 415.903 163.704 415.903 164.472C415.903 165.224 416.055 165.904 416.359 166.512C416.679 167.104 417.111 167.568 417.655 167.904C418.199 168.24 418.831 168.408 419.551 168.408ZM433.479 171.288C432.471 171.288 431.591 171.064 430.839 170.616C430.103 170.168 429.535 169.544 429.135 168.744C428.751 167.944 428.559 167.008 428.559 165.936V157.944H431.703V165.672C431.703 166.216 431.807 166.696 432.015 167.112C432.239 167.512 432.551 167.832 432.951 168.072C433.367 168.296 433.831 168.408 434.343 168.408C434.855 168.408 435.311 168.296 435.711 168.072C436.111 167.832 436.423 167.504 436.647 167.088C436.871 166.672 436.983 166.176 436.983 165.6V157.944H440.127V171H437.151V168.432L437.415 168.888C437.111 169.688 436.607 170.288 435.903 170.688C435.215 171.088 434.407 171.288 433.479 171.288ZM443.05 171V157.944H446.002V160.512L445.762 160.056C446.066 159.272 446.562 158.68 447.25 158.28C447.954 157.864 448.77 157.656 449.698 157.656C450.658 157.656 451.506 157.864 452.242 158.28C452.994 158.696 453.578 159.28 453.994 160.032C454.41 160.768 454.618 161.624 454.618 162.6V171H451.474V163.344C451.474 162.768 451.362 162.272 451.138 161.856C450.914 161.44 450.602 161.12 450.202 160.896C449.818 160.656 449.362 160.536 448.834 160.536C448.322 160.536 447.866 160.656 447.466 160.896C447.066 161.12 446.754 161.44 446.53 161.856C446.306 162.272 446.194 162.768 446.194 163.344V171H443.05ZM463.229 171.144C461.757 171.144 460.613 170.744 459.797 169.944C458.997 169.128 458.597 167.984 458.597 166.512V160.752H456.341V157.944H456.581C457.221 157.944 457.717 157.776 458.069 157.44C458.421 157.104 458.597 156.616 458.597 155.976V154.968H461.741V157.944H464.741V160.752H461.741V166.344C461.741 166.776 461.813 167.144 461.957 167.448C462.117 167.752 462.357 167.984 462.677 168.144C463.013 168.304 463.437 168.384 463.949 168.384C464.061 168.384 464.189 168.376 464.333 168.36C464.493 168.344 464.645 168.328 464.789 168.312V171C464.565 171.032 464.309 171.064 464.021 171.096C463.733 171.128 463.469 171.144 463.229 171.144Z" fill="#353535"/>
<rect x="210.5" y="210.5" width="306" height="39" rx="9.5" stroke="#1A8FE3"/>
<path d="M210 220C210 214.477 214.477 210 220 210H368V250H220C214.477 250 210 245.523 210 240V220Z" fill="#1A8FE3"/>
<path d="M260.146 236.168C259.381 236.168 258.667 236.033 258.004 235.762C257.341 235.491 256.763 235.113 256.268 234.628C255.773 234.143 255.386 233.573 255.106 232.92C254.835 232.257 254.7 231.543 254.7 230.778C254.7 230.003 254.835 229.289 255.106 228.636C255.377 227.983 255.759 227.413 256.254 226.928C256.749 226.443 257.327 226.069 257.99 225.808C258.653 225.537 259.371 225.402 260.146 225.402C260.921 225.402 261.639 225.537 262.302 225.808C262.965 226.079 263.543 226.457 264.038 226.942C264.533 227.418 264.915 227.983 265.186 228.636C265.466 229.289 265.606 230.003 265.606 230.778C265.606 231.543 265.466 232.257 265.186 232.92C264.906 233.573 264.519 234.143 264.024 234.628C263.529 235.113 262.951 235.491 262.288 235.762C261.635 236.033 260.921 236.168 260.146 236.168ZM260.146 234.432C260.659 234.432 261.131 234.343 261.56 234.166C261.989 233.979 262.363 233.723 262.68 233.396C263.007 233.069 263.254 232.682 263.422 232.234C263.599 231.786 263.688 231.301 263.688 230.778C263.688 230.255 263.599 229.775 263.422 229.336C263.254 228.888 263.007 228.501 262.68 228.174C262.363 227.838 261.989 227.581 261.56 227.404C261.131 227.227 260.659 227.138 260.146 227.138C259.642 227.138 259.175 227.227 258.746 227.404C258.317 227.581 257.939 227.838 257.612 228.174C257.295 228.501 257.047 228.888 256.87 229.336C256.693 229.775 256.604 230.255 256.604 230.778C256.604 231.301 256.693 231.786 256.87 232.234C257.047 232.682 257.295 233.069 257.612 233.396C257.939 233.723 258.317 233.979 258.746 234.166C259.175 234.343 259.642 234.432 260.146 234.432ZM267.145 236V228.384H268.867V229.882L268.727 229.616C268.904 229.159 269.194 228.813 269.595 228.58C270.006 228.337 270.482 228.216 271.023 228.216C271.583 228.216 272.078 228.337 272.507 228.58C272.946 228.823 273.286 229.163 273.529 229.602C273.772 230.031 273.893 230.531 273.893 231.1V236H272.059V231.534C272.059 231.198 271.994 230.909 271.863 230.666C271.732 230.423 271.55 230.237 271.317 230.106C271.093 229.966 270.827 229.896 270.519 229.896C270.22 229.896 269.954 229.966 269.721 230.106C269.488 230.237 269.306 230.423 269.175 230.666C269.044 230.909 268.979 231.198 268.979 231.534V236H267.145ZM279.056 236.168C278.272 236.168 277.586 235.991 276.998 235.636C276.41 235.281 275.953 234.801 275.626 234.194C275.299 233.587 275.136 232.915 275.136 232.178C275.136 231.413 275.299 230.736 275.626 230.148C275.962 229.551 276.415 229.079 276.984 228.734C277.563 228.389 278.207 228.216 278.916 228.216C279.513 228.216 280.036 228.314 280.484 228.51C280.941 228.706 281.329 228.977 281.646 229.322C281.963 229.667 282.206 230.064 282.374 230.512C282.542 230.951 282.626 231.427 282.626 231.94C282.626 232.071 282.617 232.206 282.598 232.346C282.589 232.486 282.565 232.607 282.528 232.71H276.648V231.31H281.492L280.624 231.968C280.708 231.539 280.685 231.156 280.554 230.82C280.433 230.484 280.227 230.218 279.938 230.022C279.658 229.826 279.317 229.728 278.916 229.728C278.533 229.728 278.193 229.826 277.894 230.022C277.595 230.209 277.367 230.489 277.208 230.862C277.059 231.226 277.003 231.669 277.04 232.192C277.003 232.659 277.063 233.074 277.222 233.438C277.39 233.793 277.633 234.068 277.95 234.264C278.277 234.46 278.65 234.558 279.07 234.558C279.49 234.558 279.845 234.469 280.134 234.292C280.433 234.115 280.666 233.877 280.834 233.578L282.318 234.306C282.169 234.67 281.935 234.992 281.618 235.272C281.301 235.552 280.923 235.771 280.484 235.93C280.055 236.089 279.579 236.168 279.056 236.168ZM284.394 233.004V231.394H290.344V233.004H284.394ZM295.883 236.084C295.024 236.084 294.357 235.851 293.881 235.384C293.414 234.908 293.181 234.241 293.181 233.382V230.022H291.865V228.384H292.005C292.378 228.384 292.667 228.286 292.873 228.09C293.078 227.894 293.181 227.609 293.181 227.236V226.648H295.015V228.384H296.765V230.022H295.015V233.284C295.015 233.536 295.057 233.751 295.141 233.928C295.234 234.105 295.374 234.241 295.561 234.334C295.757 234.427 296.004 234.474 296.303 234.474C296.368 234.474 296.443 234.469 296.527 234.46C296.62 234.451 296.709 234.441 296.793 234.432V236C296.662 236.019 296.513 236.037 296.345 236.056C296.177 236.075 296.023 236.084 295.883 236.084ZM298.194 236V228.384H300.028V236H298.194ZM298.194 227.53V225.57H300.028V227.53H298.194ZM301.721 236V228.384H303.443V230.148L303.247 229.854C303.387 229.303 303.667 228.893 304.087 228.622C304.507 228.351 305.002 228.216 305.571 228.216C306.197 228.216 306.747 228.379 307.223 228.706C307.699 229.033 308.007 229.462 308.147 229.994L307.629 230.036C307.863 229.429 308.213 228.977 308.679 228.678C309.146 228.37 309.683 228.216 310.289 228.216C310.831 228.216 311.311 228.337 311.731 228.58C312.161 228.823 312.497 229.163 312.739 229.602C312.982 230.031 313.103 230.531 313.103 231.1V236H311.269V231.534C311.269 231.198 311.209 230.909 311.087 230.666C310.966 230.423 310.798 230.237 310.583 230.106C310.369 229.966 310.107 229.896 309.799 229.896C309.51 229.896 309.253 229.966 309.029 230.106C308.805 230.237 308.633 230.423 308.511 230.666C308.39 230.909 308.329 231.198 308.329 231.534V236H306.495V231.534C306.495 231.198 306.435 230.909 306.313 230.666C306.192 230.423 306.019 230.237 305.795 230.106C305.581 229.966 305.324 229.896 305.025 229.896C304.736 229.896 304.479 229.966 304.255 230.106C304.031 230.237 303.859 230.423 303.737 230.666C303.616 230.909 303.555 231.198 303.555 231.534V236H301.721ZM318.267 236.168C317.483 236.168 316.797 235.991 316.209 235.636C315.621 235.281 315.163 234.801 314.837 234.194C314.51 233.587 314.347 232.915 314.347 232.178C314.347 231.413 314.51 230.736 314.837 230.148C315.173 229.551 315.625 229.079 316.195 228.734C316.773 228.389 317.417 228.216 318.127 228.216C318.724 228.216 319.247 228.314 319.695 228.51C320.152 228.706 320.539 228.977 320.857 229.322C321.174 229.667 321.417 230.064 321.585 230.512C321.753 230.951 321.837 231.427 321.837 231.94C321.837 232.071 321.827 232.206 321.809 232.346C321.799 232.486 321.776 232.607 321.739 232.71H315.859V231.31H320.703L319.835 231.968C319.919 231.539 319.895 231.156 319.765 230.82C319.643 230.484 319.438 230.218 319.149 230.022C318.869 229.826 318.528 229.728 318.127 229.728C317.744 229.728 317.403 229.826 317.105 230.022C316.806 230.209 316.577 230.489 316.419 230.862C316.269 231.226 316.213 231.669 316.251 232.192C316.213 232.659 316.274 233.074 316.433 233.438C316.601 233.793 316.843 234.068 317.161 234.264C317.487 234.46 317.861 234.558 318.281 234.558C318.701 234.558 319.055 234.469 319.345 234.292C319.643 234.115 319.877 233.877 320.045 233.578L321.529 234.306C321.379 234.67 321.146 234.992 320.829 235.272C320.511 235.552 320.133 235.771 319.695 235.93C319.265 236.089 318.789 236.168 318.267 236.168Z" fill="white"/>
<path d="M419.954 236L417.154 225.57H419.198L421.396 234.46H420.864L423.16 225.57H425.134L427.416 234.46H426.884L429.082 225.57H431.126L428.326 236H426.142L423.832 227.348H424.448L422.138 236H419.954ZM435.288 236.168C434.504 236.168 433.818 235.991 433.23 235.636C432.642 235.281 432.185 234.801 431.858 234.194C431.532 233.587 431.368 232.915 431.368 232.178C431.368 231.413 431.532 230.736 431.858 230.148C432.194 229.551 432.647 229.079 433.216 228.734C433.795 228.389 434.439 228.216 435.148 228.216C435.746 228.216 436.268 228.314 436.716 228.51C437.174 228.706 437.561 228.977 437.878 229.322C438.196 229.667 438.438 230.064 438.606 230.512C438.774 230.951 438.858 231.427 438.858 231.94C438.858 232.071 438.849 232.206 438.83 232.346C438.821 232.486 438.798 232.607 438.76 232.71H432.88V231.31H437.724L436.856 231.968C436.94 231.539 436.917 231.156 436.786 230.82C436.665 230.484 436.46 230.218 436.17 230.022C435.89 229.826 435.55 229.728 435.148 229.728C434.766 229.728 434.425 229.826 434.126 230.022C433.828 230.209 433.599 230.489 433.44 230.862C433.291 231.226 433.235 231.669 433.272 232.192C433.235 232.659 433.296 233.074 433.454 233.438C433.622 233.793 433.865 234.068 434.182 234.264C434.509 234.46 434.882 234.558 435.302 234.558C435.722 234.558 436.077 234.469 436.366 234.292C436.665 234.115 436.898 233.877 437.066 233.578L438.55 234.306C438.401 234.67 438.168 234.992 437.85 235.272C437.533 235.552 437.155 235.771 436.716 235.93C436.287 236.089 435.811 236.168 435.288 236.168ZM443.861 236.168C443.077 236.168 442.391 235.991 441.803 235.636C441.215 235.281 440.757 234.801 440.431 234.194C440.104 233.587 439.941 232.915 439.941 232.178C439.941 231.413 440.104 230.736 440.431 230.148C440.767 229.551 441.219 229.079 441.789 228.734C442.367 228.389 443.011 228.216 443.721 228.216C444.318 228.216 444.841 228.314 445.289 228.51C445.746 228.706 446.133 228.977 446.451 229.322C446.768 229.667 447.011 230.064 447.179 230.512C447.347 230.951 447.431 231.427 447.431 231.94C447.431 232.071 447.421 232.206 447.403 232.346C447.393 232.486 447.37 232.607 447.333 232.71H441.453V231.31H446.297L445.429 231.968C445.513 231.539 445.489 231.156 445.359 230.82C445.237 230.484 445.032 230.218 444.743 230.022C444.463 229.826 444.122 229.728 443.721 229.728C443.338 229.728 442.997 229.826 442.699 230.022C442.4 230.209 442.171 230.489 442.013 230.862C441.863 231.226 441.807 231.669 441.845 232.192C441.807 232.659 441.868 233.074 442.027 233.438C442.195 233.793 442.437 234.068 442.755 234.264C443.081 234.46 443.455 234.558 443.875 234.558C444.295 234.558 444.649 234.469 444.939 234.292C445.237 234.115 445.471 233.877 445.639 233.578L447.123 234.306C446.973 234.67 446.74 234.992 446.423 235.272C446.105 235.552 445.727 235.771 445.289 235.93C444.859 236.089 444.383 236.168 443.861 236.168ZM448.821 236V225.402H450.655V232.346L449.955 232.136L453.539 228.384H455.821L453.007 231.45L455.877 236H453.777L451.285 232.052L452.377 231.828L450.081 234.292L450.655 233.172V236H448.821ZM456.901 236V225.402H458.735V236H456.901ZM461.352 239.094C461.147 239.094 460.946 239.075 460.75 239.038C460.554 239.01 460.377 238.959 460.218 238.884V237.344C460.34 237.372 460.484 237.4 460.652 237.428C460.83 237.456 460.993 237.47 461.142 237.47C461.562 237.47 461.866 237.372 462.052 237.176C462.248 236.98 462.421 236.723 462.57 236.406L463.074 235.23L463.046 236.77L459.728 228.384H461.702L464.026 234.572H463.326L465.636 228.384H467.624L464.306 236.77C464.11 237.265 463.872 237.685 463.592 238.03C463.312 238.375 462.986 238.637 462.612 238.814C462.248 239.001 461.828 239.094 461.352 239.094Z" fill="#1A8FE3" fill-opacity="0.5"/>
<g filter="url(#filter2_d_0_1)">
<rect x="204" y="303" width="100" height="36" rx="5" fill="white"/>
<rect x="204.25" y="303.25" width="99.5" height="35.5" rx="4.75" stroke="#D3D3D3" stroke-width="0.5"/>
</g>
<path d="M234.158 327.168C233.607 327.168 233.08 327.065 232.576 326.86C232.081 326.655 231.652 326.365 231.288 325.992C230.933 325.609 230.691 325.157 230.56 324.634L232.212 324.046C232.371 324.522 232.627 324.877 232.982 325.11C233.337 325.334 233.729 325.446 234.158 325.446C234.513 325.446 234.825 325.371 235.096 325.222C235.376 325.063 235.591 324.849 235.74 324.578C235.889 324.298 235.964 323.976 235.964 323.612C235.964 323.248 235.885 322.931 235.726 322.66C235.577 322.389 235.367 322.179 235.096 322.03C234.825 321.871 234.513 321.792 234.158 321.792C233.794 321.792 233.463 321.871 233.164 322.03C232.875 322.189 232.665 322.417 232.534 322.716L230.98 322.366L231.806 316.57H237.49V318.18H232.562L233.276 317.354L232.688 321.722L232.142 321.274C232.403 320.891 232.721 320.611 233.094 320.434C233.477 320.257 233.939 320.168 234.48 320.168C235.171 320.168 235.768 320.317 236.272 320.616C236.785 320.915 237.182 321.321 237.462 321.834C237.742 322.347 237.882 322.94 237.882 323.612C237.882 324.284 237.719 324.891 237.392 325.432C237.065 325.973 236.622 326.398 236.062 326.706C235.502 327.014 234.867 327.168 234.158 327.168ZM243.569 327.168C242.739 327.168 242.011 326.944 241.385 326.496C240.76 326.048 240.27 325.418 239.915 324.606C239.57 323.794 239.397 322.851 239.397 321.778C239.397 320.695 239.57 319.753 239.915 318.95C240.261 318.147 240.746 317.522 241.371 317.074C241.997 316.626 242.725 316.402 243.555 316.402C244.405 316.402 245.137 316.626 245.753 317.074C246.379 317.522 246.869 318.152 247.223 318.964C247.578 319.767 247.755 320.705 247.755 321.778C247.755 322.851 247.578 323.794 247.223 324.606C246.878 325.409 246.393 326.039 245.767 326.496C245.142 326.944 244.409 327.168 243.569 327.168ZM243.583 325.432C244.059 325.432 244.465 325.287 244.801 324.998C245.137 324.699 245.394 324.279 245.571 323.738C245.758 323.187 245.851 322.534 245.851 321.778C245.851 321.022 245.758 320.373 245.571 319.832C245.394 319.281 245.133 318.861 244.787 318.572C244.451 318.283 244.041 318.138 243.555 318.138C243.089 318.138 242.687 318.283 242.351 318.572C242.015 318.861 241.754 319.281 241.567 319.832C241.39 320.373 241.301 321.022 241.301 321.778C241.301 322.525 241.39 323.173 241.567 323.724C241.754 324.265 242.015 324.685 242.351 324.984C242.697 325.283 243.107 325.432 243.583 325.432ZM253.481 327.168C252.651 327.168 251.923 326.944 251.297 326.496C250.672 326.048 250.182 325.418 249.827 324.606C249.482 323.794 249.309 322.851 249.309 321.778C249.309 320.695 249.482 319.753 249.827 318.95C250.173 318.147 250.658 317.522 251.283 317.074C251.909 316.626 252.637 316.402 253.467 316.402C254.317 316.402 255.049 316.626 255.665 317.074C256.291 317.522 256.781 318.152 257.135 318.964C257.49 319.767 257.667 320.705 257.667 321.778C257.667 322.851 257.49 323.794 257.135 324.606C256.79 325.409 256.305 326.039 255.679 326.496C255.054 326.944 254.321 327.168 253.481 327.168ZM253.495 325.432C253.971 325.432 254.377 325.287 254.713 324.998C255.049 324.699 255.306 324.279 255.483 323.738C255.67 323.187 255.763 322.534 255.763 321.778C255.763 321.022 255.67 320.373 255.483 319.832C255.306 319.281 255.045 318.861 254.699 318.572C254.363 318.283 253.953 318.138 253.467 318.138C253.001 318.138 252.599 318.283 252.263 318.572C251.927 318.861 251.666 319.281 251.479 319.832C251.302 320.373 251.213 321.022 251.213 321.778C251.213 322.525 251.302 323.173 251.479 323.724C251.666 324.265 251.927 324.685 252.263 324.984C252.609 325.283 253.019 325.432 253.495 325.432ZM261.934 327V316.57H263.838V322.002L263.32 321.82L267.758 316.57H270.152L265.994 321.498L266.106 320.154L270.278 327H268.038L265.238 322.408L263.838 324.074V327H261.934ZM274.043 327.168C273.231 327.168 272.522 326.977 271.915 326.594C271.318 326.202 270.907 325.675 270.683 325.012L272.055 324.354C272.251 324.783 272.522 325.119 272.867 325.362C273.222 325.605 273.614 325.726 274.043 325.726C274.379 325.726 274.645 325.651 274.841 325.502C275.037 325.353 275.135 325.157 275.135 324.914C275.135 324.765 275.093 324.643 275.009 324.55C274.934 324.447 274.827 324.363 274.687 324.298C274.556 324.223 274.412 324.163 274.253 324.116L273.007 323.766C272.363 323.579 271.873 323.295 271.537 322.912C271.21 322.529 271.047 322.077 271.047 321.554C271.047 321.087 271.164 320.681 271.397 320.336C271.64 319.981 271.971 319.706 272.391 319.51C272.82 319.314 273.31 319.216 273.861 319.216C274.58 319.216 275.214 319.389 275.765 319.734C276.316 320.079 276.708 320.565 276.941 321.19L275.541 321.848C275.41 321.503 275.191 321.227 274.883 321.022C274.575 320.817 274.23 320.714 273.847 320.714C273.539 320.714 273.296 320.784 273.119 320.924C272.942 321.064 272.853 321.246 272.853 321.47C272.853 321.61 272.89 321.731 272.965 321.834C273.04 321.937 273.142 322.021 273.273 322.086C273.413 322.151 273.572 322.212 273.749 322.268L274.967 322.632C275.592 322.819 276.073 323.099 276.409 323.472C276.754 323.845 276.927 324.303 276.927 324.844C276.927 325.301 276.806 325.707 276.563 326.062C276.32 326.407 275.984 326.678 275.555 326.874C275.126 327.07 274.622 327.168 274.043 327.168Z" fill="#9A9A9A"/>
<g filter="url(#filter3_d_0_1)">
<rect x="317" y="303" width="100" height="36" rx="5" fill="white"/>
<rect x="317.25" y="303.25" width="99.5" height="35.5" rx="4.75" stroke="#D3D3D3" stroke-width="0.5"/>
</g>
<path d="M341.422 327V318.194H339.406V316.57H343.326V327H341.422ZM349.602 327.168C348.772 327.168 348.044 326.944 347.418 326.496C346.793 326.048 346.303 325.418 345.948 324.606C345.603 323.794 345.43 322.851 345.43 321.778C345.43 320.695 345.603 319.753 345.948 318.95C346.294 318.147 346.779 317.522 347.404 317.074C348.03 316.626 348.758 316.402 349.588 316.402C350.438 316.402 351.17 316.626 351.786 317.074C352.412 317.522 352.902 318.152 353.256 318.964C353.611 319.767 353.788 320.705 353.788 321.778C353.788 322.851 353.611 323.794 353.256 324.606C352.911 325.409 352.426 326.039 351.8 326.496C351.175 326.944 350.442 327.168 349.602 327.168ZM349.616 325.432C350.092 325.432 350.498 325.287 350.834 324.998C351.17 324.699 351.427 324.279 351.604 323.738C351.791 323.187 351.884 322.534 351.884 321.778C351.884 321.022 351.791 320.373 351.604 319.832C351.427 319.281 351.166 318.861 350.82 318.572C350.484 318.283 350.074 318.138 349.588 318.138C349.122 318.138 348.72 318.283 348.384 318.572C348.048 318.861 347.787 319.281 347.6 319.832C347.423 320.373 347.334 321.022 347.334 321.778C347.334 322.525 347.423 323.173 347.6 323.724C347.787 324.265 348.048 324.685 348.384 324.984C348.73 325.283 349.14 325.432 349.616 325.432ZM359.515 327.168C358.684 327.168 357.956 326.944 357.331 326.496C356.705 326.048 356.215 325.418 355.861 324.606C355.515 323.794 355.343 322.851 355.343 321.778C355.343 320.695 355.515 319.753 355.861 318.95C356.206 318.147 356.691 317.522 357.317 317.074C357.942 316.626 358.67 316.402 359.501 316.402C360.35 316.402 361.083 316.626 361.699 317.074C362.324 317.522 362.814 318.152 363.169 318.964C363.523 319.767 363.701 320.705 363.701 321.778C363.701 322.851 363.523 323.794 363.169 324.606C362.823 325.409 362.338 326.039 361.713 326.496C361.087 326.944 360.355 327.168 359.515 327.168ZM359.529 325.432C360.005 325.432 360.411 325.287 360.747 324.998C361.083 324.699 361.339 324.279 361.517 323.738C361.703 323.187 361.797 322.534 361.797 321.778C361.797 321.022 361.703 320.373 361.517 319.832C361.339 319.281 361.078 318.861 360.733 318.572C360.397 318.283 359.986 318.138 359.501 318.138C359.034 318.138 358.633 318.283 358.297 318.572C357.961 318.861 357.699 319.281 357.513 319.832C357.335 320.373 357.247 321.022 357.247 321.778C357.247 322.525 357.335 323.173 357.513 323.724C357.699 324.265 357.961 324.685 358.297 324.984C358.642 325.283 359.053 325.432 359.529 325.432ZM369.427 327.168C368.596 327.168 367.868 326.944 367.243 326.496C366.617 326.048 366.127 325.418 365.773 324.606C365.427 323.794 365.255 322.851 365.255 321.778C365.255 320.695 365.427 319.753 365.773 318.95C366.118 318.147 366.603 317.522 367.229 317.074C367.854 316.626 368.582 316.402 369.413 316.402C370.262 316.402 370.995 316.626 371.611 317.074C372.236 317.522 372.726 318.152 373.081 318.964C373.435 319.767 373.613 320.705 373.613 321.778C373.613 322.851 373.435 323.794 373.081 324.606C372.735 325.409 372.25 326.039 371.625 326.496C370.999 326.944 370.267 327.168 369.427 327.168ZM369.441 325.432C369.917 325.432 370.323 325.287 370.659 324.998C370.995 324.699 371.251 324.279 371.429 323.738C371.615 323.187 371.709 322.534 371.709 321.778C371.709 321.022 371.615 320.373 371.429 319.832C371.251 319.281 370.99 318.861 370.645 318.572C370.309 318.283 369.898 318.138 369.413 318.138C368.946 318.138 368.545 318.283 368.209 318.572C367.873 318.861 367.611 319.281 367.425 319.832C367.247 320.373 367.159 321.022 367.159 321.778C367.159 322.525 367.247 323.173 367.425 323.724C367.611 324.265 367.873 324.685 368.209 324.984C368.554 325.283 368.965 325.432 369.441 325.432ZM377.879 327V316.57H379.783V322.002L379.265 321.82L383.703 316.57H386.097L381.939 321.498L382.051 320.154L386.223 327H383.983L381.183 322.408L379.783 324.074V327H377.879ZM389.988 327.168C389.176 327.168 388.467 326.977 387.86 326.594C387.263 326.202 386.852 325.675 386.628 325.012L388 324.354C388.196 324.783 388.467 325.119 388.812 325.362C389.167 325.605 389.559 325.726 389.988 325.726C390.324 325.726 390.59 325.651 390.786 325.502C390.982 325.353 391.08 325.157 391.08 324.914C391.08 324.765 391.038 324.643 390.954 324.55C390.88 324.447 390.772 324.363 390.632 324.298C390.502 324.223 390.357 324.163 390.198 324.116L388.952 323.766C388.308 323.579 387.818 323.295 387.482 322.912C387.156 322.529 386.992 322.077 386.992 321.554C386.992 321.087 387.109 320.681 387.342 320.336C387.585 319.981 387.916 319.706 388.336 319.51C388.766 319.314 389.256 319.216 389.806 319.216C390.525 319.216 391.16 319.389 391.71 319.734C392.261 320.079 392.653 320.565 392.886 321.19L391.486 321.848C391.356 321.503 391.136 321.227 390.828 321.022C390.52 320.817 390.175 320.714 389.792 320.714C389.484 320.714 389.242 320.784 389.064 320.924C388.887 321.064 388.798 321.246 388.798 321.47C388.798 321.61 388.836 321.731 388.91 321.834C388.985 321.937 389.088 322.021 389.218 322.086C389.358 322.151 389.517 322.212 389.694 322.268L390.912 322.632C391.538 322.819 392.018 323.099 392.354 323.472C392.7 323.845 392.872 324.303 392.872 324.844C392.872 325.301 392.751 325.707 392.508 326.062C392.266 326.407 391.93 326.678 391.5 326.874C391.071 327.07 390.567 327.168 389.988 327.168Z" fill="#9A9A9A"/>
<g filter="url(#filter4_d_0_1)">
<rect x="430" y="303" width="100" height="36" rx="5" fill="white"/>
<rect x="430.25" y="303.25" width="99.5" height="35.5" rx="4.75" stroke="#D3D3D3" stroke-width="0.5"/>
</g>
<path d="M451.644 327V325.558L454.472 322.604C455.032 322.016 455.461 321.549 455.76 321.204C456.068 320.849 456.283 320.546 456.404 320.294C456.525 320.042 456.586 319.785 456.586 319.524C456.586 319.085 456.446 318.74 456.166 318.488C455.895 318.236 455.545 318.11 455.116 318.11C454.668 318.11 454.281 318.241 453.954 318.502C453.627 318.754 453.389 319.127 453.24 319.622L451.574 319.104C451.686 318.553 451.915 318.077 452.26 317.676C452.605 317.265 453.025 316.953 453.52 316.738C454.024 316.514 454.556 316.402 455.116 316.402C455.788 316.402 456.376 316.523 456.88 316.766C457.393 317.009 457.79 317.349 458.07 317.788C458.359 318.227 458.504 318.74 458.504 319.328C458.504 319.701 458.434 320.07 458.294 320.434C458.154 320.798 457.944 321.171 457.664 321.554C457.384 321.927 457.02 322.347 456.572 322.814L454.122 325.39H458.644V327H451.644ZM464.31 327.168C463.479 327.168 462.751 326.944 462.126 326.496C461.5 326.048 461.01 325.418 460.656 324.606C460.31 323.794 460.138 322.851 460.138 321.778C460.138 320.695 460.31 319.753 460.656 318.95C461.001 318.147 461.486 317.522 462.112 317.074C462.737 316.626 463.465 316.402 464.296 316.402C465.145 316.402 465.878 316.626 466.494 317.074C467.119 317.522 467.609 318.152 467.964 318.964C468.318 319.767 468.496 320.705 468.496 321.778C468.496 322.851 468.318 323.794 467.964 324.606C467.618 325.409 467.133 326.039 466.508 326.496C465.882 326.944 465.15 327.168 464.31 327.168ZM464.324 325.432C464.8 325.432 465.206 325.287 465.542 324.998C465.878 324.699 466.134 324.279 466.312 323.738C466.498 323.187 466.592 322.534 466.592 321.778C466.592 321.022 466.498 320.373 466.312 319.832C466.134 319.281 465.873 318.861 465.528 318.572C465.192 318.283 464.781 318.138 464.296 318.138C463.829 318.138 463.428 318.283 463.092 318.572C462.756 318.861 462.494 319.281 462.308 319.832C462.13 320.373 462.042 321.022 462.042 321.778C462.042 322.525 462.13 323.173 462.308 323.724C462.494 324.265 462.756 324.685 463.092 324.984C463.437 325.283 463.848 325.432 464.324 325.432ZM474.222 327.168C473.391 327.168 472.663 326.944 472.038 326.496C471.412 326.048 470.922 325.418 470.568 324.606C470.222 323.794 470.05 322.851 470.05 321.778C470.05 320.695 470.222 319.753 470.568 318.95C470.913 318.147 471.398 317.522 472.024 317.074C472.649 316.626 473.377 316.402 474.208 316.402C475.057 316.402 475.79 316.626 476.406 317.074C477.031 317.522 477.521 318.152 477.876 318.964C478.23 319.767 478.408 320.705 478.408 321.778C478.408 322.851 478.23 323.794 477.876 324.606C477.53 325.409 477.045 326.039 476.42 326.496C475.794 326.944 475.062 327.168 474.222 327.168ZM474.236 325.432C474.712 325.432 475.118 325.287 475.454 324.998C475.79 324.699 476.046 324.279 476.224 323.738C476.41 323.187 476.504 322.534 476.504 321.778C476.504 321.022 476.41 320.373 476.224 319.832C476.046 319.281 475.785 318.861 475.44 318.572C475.104 318.283 474.693 318.138 474.208 318.138C473.741 318.138 473.34 318.283 473.004 318.572C472.668 318.861 472.406 319.281 472.22 319.832C472.042 320.373 471.954 321.022 471.954 321.778C471.954 322.525 472.042 323.173 472.22 323.724C472.406 324.265 472.668 324.685 473.004 324.984C473.349 325.283 473.76 325.432 474.236 325.432ZM484.134 327.168C483.303 327.168 482.575 326.944 481.95 326.496C481.324 326.048 480.834 325.418 480.48 324.606C480.134 323.794 479.962 322.851 479.962 321.778C479.962 320.695 480.134 319.753 480.48 318.95C480.825 318.147 481.31 317.522 481.936 317.074C482.561 316.626 483.289 316.402 484.12 316.402C484.969 316.402 485.702 316.626 486.318 317.074C486.943 317.522 487.433 318.152 487.788 318.964C488.142 319.767 488.32 320.705 488.32 321.778C488.32 322.851 488.142 323.794 487.788 324.606C487.442 325.409 486.957 326.039 486.332 326.496C485.706 326.944 484.974 327.168 484.134 327.168ZM484.148 325.432C484.624 325.432 485.03 325.287 485.366 324.998C485.702 324.699 485.958 324.279 486.136 323.738C486.322 323.187 486.416 322.534 486.416 321.778C486.416 321.022 486.322 320.373 486.136 319.832C485.958 319.281 485.697 318.861 485.352 318.572C485.016 318.283 484.605 318.138 484.12 318.138C483.653 318.138 483.252 318.283 482.916 318.572C482.58 318.861 482.318 319.281 482.132 319.832C481.954 320.373 481.866 321.022 481.866 321.778C481.866 322.525 481.954 323.173 482.132 323.724C482.318 324.265 482.58 324.685 482.916 324.984C483.261 325.283 483.672 325.432 484.148 325.432ZM492.586 327V316.57H494.49V322.002L493.972 321.82L498.41 316.57H500.804L496.646 321.498L496.758 320.154L500.93 327H498.69L495.89 322.408L494.49 324.074V327H492.586ZM504.695 327.168C503.883 327.168 503.174 326.977 502.567 326.594C501.97 326.202 501.559 325.675 501.335 325.012L502.707 324.354C502.903 324.783 503.174 325.119 503.519 325.362C503.874 325.605 504.266 325.726 504.695 325.726C505.031 325.726 505.297 325.651 505.493 325.502C505.689 325.353 505.787 325.157 505.787 324.914C505.787 324.765 505.745 324.643 505.661 324.55C505.587 324.447 505.479 324.363 505.339 324.298C505.209 324.223 505.064 324.163 504.905 324.116L503.659 323.766C503.015 323.579 502.525 323.295 502.189 322.912C501.863 322.529 501.699 322.077 501.699 321.554C501.699 321.087 501.816 320.681 502.049 320.336C502.292 319.981 502.623 319.706 503.043 319.51C503.473 319.314 503.963 319.216 504.513 319.216C505.232 319.216 505.867 319.389 506.417 319.734C506.968 320.079 507.36 320.565 507.593 321.19L506.193 321.848C506.063 321.503 505.843 321.227 505.535 321.022C505.227 320.817 504.882 320.714 504.499 320.714C504.191 320.714 503.949 320.784 503.771 320.924C503.594 321.064 503.505 321.246 503.505 321.47C503.505 321.61 503.543 321.731 503.617 321.834C503.692 321.937 503.795 322.021 503.925 322.086C504.065 322.151 504.224 322.212 504.401 322.268L505.619 322.632C506.245 322.819 506.725 323.099 507.061 323.472C507.407 323.845 507.579 324.303 507.579 324.844C507.579 325.301 507.458 325.707 507.215 326.062C506.973 326.407 506.637 326.678 506.207 326.874C505.778 327.07 505.274 327.168 504.695 327.168Z" fill="#9A9A9A"/>
<g filter="url(#filter5_d_0_1)">
<rect x="204" y="358" width="100" height="36" rx="5" fill="white"/>
<rect x="204.25" y="358.25" width="99.5" height="35.5" rx="4.75" stroke="#D3D3D3" stroke-width="0.5"/>
</g>
<path d="M229.158 382.168C228.607 382.168 228.08 382.065 227.576 381.86C227.081 381.655 226.652 381.365 226.288 380.992C225.933 380.609 225.691 380.157 225.56 379.634L227.212 379.046C227.371 379.522 227.627 379.877 227.982 380.11C228.337 380.334 228.729 380.446 229.158 380.446C229.513 380.446 229.825 380.371 230.096 380.222C230.376 380.063 230.591 379.849 230.74 379.578C230.889 379.298 230.964 378.976 230.964 378.612C230.964 378.248 230.885 377.931 230.726 377.66C230.577 377.389 230.367 377.179 230.096 377.03C229.825 376.871 229.513 376.792 229.158 376.792C228.794 376.792 228.463 376.871 228.164 377.03C227.875 377.189 227.665 377.417 227.534 377.716L225.98 377.366L226.806 371.57H232.49V373.18H227.562L228.276 372.354L227.688 376.722L227.142 376.274C227.403 375.891 227.721 375.611 228.094 375.434C228.477 375.257 228.939 375.168 229.48 375.168C230.171 375.168 230.768 375.317 231.272 375.616C231.785 375.915 232.182 376.321 232.462 376.834C232.742 377.347 232.882 377.94 232.882 378.612C232.882 379.284 232.719 379.891 232.392 380.432C232.065 380.973 231.622 381.398 231.062 381.706C230.502 382.014 229.867 382.168 229.158 382.168ZM238.569 382.168C237.739 382.168 237.011 381.944 236.385 381.496C235.76 381.048 235.27 380.418 234.915 379.606C234.57 378.794 234.397 377.851 234.397 376.778C234.397 375.695 234.57 374.753 234.915 373.95C235.261 373.147 235.746 372.522 236.371 372.074C236.997 371.626 237.725 371.402 238.555 371.402C239.405 371.402 240.137 371.626 240.753 372.074C241.379 372.522 241.869 373.152 242.223 373.964C242.578 374.767 242.755 375.705 242.755 376.778C242.755 377.851 242.578 378.794 242.223 379.606C241.878 380.409 241.393 381.039 240.767 381.496C240.142 381.944 239.409 382.168 238.569 382.168ZM238.583 380.432C239.059 380.432 239.465 380.287 239.801 379.998C240.137 379.699 240.394 379.279 240.571 378.738C240.758 378.187 240.851 377.534 240.851 376.778C240.851 376.022 240.758 375.373 240.571 374.832C240.394 374.281 240.133 373.861 239.787 373.572C239.451 373.283 239.041 373.138 238.555 373.138C238.089 373.138 237.687 373.283 237.351 373.572C237.015 373.861 236.754 374.281 236.567 374.832C236.39 375.373 236.301 376.022 236.301 376.778C236.301 377.525 236.39 378.173 236.567 378.724C236.754 379.265 237.015 379.685 237.351 379.984C237.697 380.283 238.107 380.432 238.583 380.432ZM248.481 382.168C247.651 382.168 246.923 381.944 246.297 381.496C245.672 381.048 245.182 380.418 244.827 379.606C244.482 378.794 244.309 377.851 244.309 376.778C244.309 375.695 244.482 374.753 244.827 373.95C245.173 373.147 245.658 372.522 246.283 372.074C246.909 371.626 247.637 371.402 248.467 371.402C249.317 371.402 250.049 371.626 250.665 372.074C251.291 372.522 251.781 373.152 252.135 373.964C252.49 374.767 252.667 375.705 252.667 376.778C252.667 377.851 252.49 378.794 252.135 379.606C251.79 380.409 251.305 381.039 250.679 381.496C250.054 381.944 249.321 382.168 248.481 382.168ZM248.495 380.432C248.971 380.432 249.377 380.287 249.713 379.998C250.049 379.699 250.306 379.279 250.483 378.738C250.67 378.187 250.763 377.534 250.763 376.778C250.763 376.022 250.67 375.373 250.483 374.832C250.306 374.281 250.045 373.861 249.699 373.572C249.363 373.283 248.953 373.138 248.467 373.138C248.001 373.138 247.599 373.283 247.263 373.572C246.927 373.861 246.666 374.281 246.479 374.832C246.302 375.373 246.213 376.022 246.213 376.778C246.213 377.525 246.302 378.173 246.479 378.724C246.666 379.265 246.927 379.685 247.263 379.984C247.609 380.283 248.019 380.432 248.495 380.432ZM258.394 382.168C257.563 382.168 256.835 381.944 256.21 381.496C255.584 381.048 255.094 380.418 254.74 379.606C254.394 378.794 254.222 377.851 254.222 376.778C254.222 375.695 254.394 374.753 254.74 373.95C255.085 373.147 255.57 372.522 256.196 372.074C256.821 371.626 257.549 371.402 258.38 371.402C259.229 371.402 259.962 371.626 260.578 372.074C261.203 372.522 261.693 373.152 262.048 373.964C262.402 374.767 262.58 375.705 262.58 376.778C262.58 377.851 262.402 378.794 262.048 379.606C261.702 380.409 261.217 381.039 260.592 381.496C259.966 381.944 259.234 382.168 258.394 382.168ZM258.408 380.432C258.884 380.432 259.29 380.287 259.626 379.998C259.962 379.699 260.218 379.279 260.396 378.738C260.582 378.187 260.676 377.534 260.676 376.778C260.676 376.022 260.582 375.373 260.396 374.832C260.218 374.281 259.957 373.861 259.612 373.572C259.276 373.283 258.865 373.138 258.38 373.138C257.913 373.138 257.512 373.283 257.176 373.572C256.84 373.861 256.578 374.281 256.392 374.832C256.214 375.373 256.126 376.022 256.126 376.778C256.126 377.525 256.214 378.173 256.392 378.724C256.578 379.265 256.84 379.685 257.176 379.984C257.521 380.283 257.932 380.432 258.408 380.432ZM266.846 382V371.57H268.75V377.002L268.232 376.82L272.67 371.57H275.064L270.906 376.498L271.018 375.154L275.19 382H272.95L270.15 377.408L268.75 379.074V382H266.846ZM278.955 382.168C278.143 382.168 277.434 381.977 276.827 381.594C276.23 381.202 275.819 380.675 275.595 380.012L276.967 379.354C277.163 379.783 277.434 380.119 277.779 380.362C278.134 380.605 278.526 380.726 278.955 380.726C279.291 380.726 279.557 380.651 279.753 380.502C279.949 380.353 280.047 380.157 280.047 379.914C280.047 379.765 280.005 379.643 279.921 379.55C279.846 379.447 279.739 379.363 279.599 379.298C279.468 379.223 279.324 379.163 279.165 379.116L277.919 378.766C277.275 378.579 276.785 378.295 276.449 377.912C276.122 377.529 275.959 377.077 275.959 376.554C275.959 376.087 276.076 375.681 276.309 375.336C276.552 374.981 276.883 374.706 277.303 374.51C277.732 374.314 278.222 374.216 278.773 374.216C279.492 374.216 280.126 374.389 280.677 374.734C281.228 375.079 281.62 375.565 281.853 376.19L280.453 376.848C280.322 376.503 280.103 376.227 279.795 376.022C279.487 375.817 279.142 375.714 278.759 375.714C278.451 375.714 278.208 375.784 278.031 375.924C277.854 376.064 277.765 376.246 277.765 376.47C277.765 376.61 277.802 376.731 277.877 376.834C277.952 376.937 278.054 377.021 278.185 377.086C278.325 377.151 278.484 377.212 278.661 377.268L279.879 377.632C280.504 377.819 280.985 378.099 281.321 378.472C281.666 378.845 281.839 379.303 281.839 379.844C281.839 380.301 281.718 380.707 281.475 381.062C281.232 381.407 280.896 381.678 280.467 381.874C280.038 382.07 279.534 382.168 278.955 382.168Z" fill="#9A9A9A"/>
<g filter="url(#filter6_d_0_1)">
<rect x="317" y="358" width="100" height="36" rx="5" fill="white"/>
<rect x="317.25" y="358.25" width="99.5" height="35.5" rx="4.75" stroke="#D3D3D3" stroke-width="0.5"/>
</g>
<path d="M337.422 382V373.194H335.406V371.57H339.326V382H337.422ZM345.602 382.168C344.772 382.168 344.044 381.944 343.418 381.496C342.793 381.048 342.303 380.418 341.948 379.606C341.603 378.794 341.43 377.851 341.43 376.778C341.43 375.695 341.603 374.753 341.948 373.95C342.294 373.147 342.779 372.522 343.404 372.074C344.03 371.626 344.758 371.402 345.588 371.402C346.438 371.402 347.17 371.626 347.786 372.074C348.412 372.522 348.902 373.152 349.256 373.964C349.611 374.767 349.788 375.705 349.788 376.778C349.788 377.851 349.611 378.794 349.256 379.606C348.911 380.409 348.426 381.039 347.8 381.496C347.175 381.944 346.442 382.168 345.602 382.168ZM345.616 380.432C346.092 380.432 346.498 380.287 346.834 379.998C347.17 379.699 347.427 379.279 347.604 378.738C347.791 378.187 347.884 377.534 347.884 376.778C347.884 376.022 347.791 375.373 347.604 374.832C347.427 374.281 347.166 373.861 346.82 373.572C346.484 373.283 346.074 373.138 345.588 373.138C345.122 373.138 344.72 373.283 344.384 373.572C344.048 373.861 343.787 374.281 343.6 374.832C343.423 375.373 343.334 376.022 343.334 376.778C343.334 377.525 343.423 378.173 343.6 378.724C343.787 379.265 344.048 379.685 344.384 379.984C344.73 380.283 345.14 380.432 345.616 380.432ZM355.515 382.168C354.684 382.168 353.956 381.944 353.331 381.496C352.705 381.048 352.215 380.418 351.861 379.606C351.515 378.794 351.343 377.851 351.343 376.778C351.343 375.695 351.515 374.753 351.861 373.95C352.206 373.147 352.691 372.522 353.317 372.074C353.942 371.626 354.67 371.402 355.501 371.402C356.35 371.402 357.083 371.626 357.699 372.074C358.324 372.522 358.814 373.152 359.169 373.964C359.523 374.767 359.701 375.705 359.701 376.778C359.701 377.851 359.523 378.794 359.169 379.606C358.823 380.409 358.338 381.039 357.713 381.496C357.087 381.944 356.355 382.168 355.515 382.168ZM355.529 380.432C356.005 380.432 356.411 380.287 356.747 379.998C357.083 379.699 357.339 379.279 357.517 378.738C357.703 378.187 357.797 377.534 357.797 376.778C357.797 376.022 357.703 375.373 357.517 374.832C357.339 374.281 357.078 373.861 356.733 373.572C356.397 373.283 355.986 373.138 355.501 373.138C355.034 373.138 354.633 373.283 354.297 373.572C353.961 373.861 353.699 374.281 353.513 374.832C353.335 375.373 353.247 376.022 353.247 376.778C353.247 377.525 353.335 378.173 353.513 378.724C353.699 379.265 353.961 379.685 354.297 379.984C354.642 380.283 355.053 380.432 355.529 380.432ZM365.427 382.168C364.596 382.168 363.868 381.944 363.243 381.496C362.617 381.048 362.127 380.418 361.773 379.606C361.427 378.794 361.255 377.851 361.255 376.778C361.255 375.695 361.427 374.753 361.773 373.95C362.118 373.147 362.603 372.522 363.229 372.074C363.854 371.626 364.582 371.402 365.413 371.402C366.262 371.402 366.995 371.626 367.611 372.074C368.236 372.522 368.726 373.152 369.081 373.964C369.435 374.767 369.613 375.705 369.613 376.778C369.613 377.851 369.435 378.794 369.081 379.606C368.735 380.409 368.25 381.039 367.625 381.496C366.999 381.944 366.267 382.168 365.427 382.168ZM365.441 380.432C365.917 380.432 366.323 380.287 366.659 379.998C366.995 379.699 367.251 379.279 367.429 378.738C367.615 378.187 367.709 377.534 367.709 376.778C367.709 376.022 367.615 375.373 367.429 374.832C367.251 374.281 366.99 373.861 366.645 373.572C366.309 373.283 365.898 373.138 365.413 373.138C364.946 373.138 364.545 373.283 364.209 373.572C363.873 373.861 363.611 374.281 363.425 374.832C363.247 375.373 363.159 376.022 363.159 376.778C363.159 377.525 363.247 378.173 363.425 378.724C363.611 379.265 363.873 379.685 364.209 379.984C364.554 380.283 364.965 380.432 365.441 380.432ZM375.339 382.168C374.508 382.168 373.78 381.944 373.155 381.496C372.529 381.048 372.039 380.418 371.685 379.606C371.339 378.794 371.167 377.851 371.167 376.778C371.167 375.695 371.339 374.753 371.685 373.95C372.03 373.147 372.515 372.522 373.141 372.074C373.766 371.626 374.494 371.402 375.325 371.402C376.174 371.402 376.907 371.626 377.523 372.074C378.148 372.522 378.638 373.152 378.993 373.964C379.347 374.767 379.525 375.705 379.525 376.778C379.525 377.851 379.347 378.794 378.993 379.606C378.647 380.409 378.162 381.039 377.537 381.496C376.911 381.944 376.179 382.168 375.339 382.168ZM375.353 380.432C375.829 380.432 376.235 380.287 376.571 379.998C376.907 379.699 377.163 379.279 377.341 378.738C377.527 378.187 377.621 377.534 377.621 376.778C377.621 376.022 377.527 375.373 377.341 374.832C377.163 374.281 376.902 373.861 376.557 373.572C376.221 373.283 375.81 373.138 375.325 373.138C374.858 373.138 374.457 373.283 374.121 373.572C373.785 373.861 373.523 374.281 373.337 374.832C373.159 375.373 373.071 376.022 373.071 376.778C373.071 377.525 373.159 378.173 373.337 378.724C373.523 379.265 373.785 379.685 374.121 379.984C374.466 380.283 374.877 380.432 375.353 380.432ZM383.791 382V371.57H385.695V377.002L385.177 376.82L389.615 371.57H392.009L387.851 376.498L387.963 375.154L392.135 382H389.895L387.095 377.408L385.695 379.074V382H383.791ZM395.9 382.168C395.088 382.168 394.379 381.977 393.772 381.594C393.175 381.202 392.764 380.675 392.54 380.012L393.912 379.354C394.108 379.783 394.379 380.119 394.724 380.362C395.079 380.605 395.471 380.726 395.9 380.726C396.236 380.726 396.502 380.651 396.698 380.502C396.894 380.353 396.992 380.157 396.992 379.914C396.992 379.765 396.95 379.643 396.866 379.55C396.792 379.447 396.684 379.363 396.544 379.298C396.414 379.223 396.269 379.163 396.11 379.116L394.864 378.766C394.22 378.579 393.73 378.295 393.394 377.912C393.068 377.529 392.904 377.077 392.904 376.554C392.904 376.087 393.021 375.681 393.254 375.336C393.497 374.981 393.828 374.706 394.248 374.51C394.678 374.314 395.168 374.216 395.718 374.216C396.437 374.216 397.072 374.389 397.622 374.734C398.173 375.079 398.565 375.565 398.798 376.19L397.398 376.848C397.268 376.503 397.048 376.227 396.74 376.022C396.432 375.817 396.087 375.714 395.704 375.714C395.396 375.714 395.154 375.784 394.976 375.924C394.799 376.064 394.71 376.246 394.71 376.47C394.71 376.61 394.748 376.731 394.822 376.834C394.897 376.937 395 377.021 395.13 377.086C395.27 377.151 395.429 377.212 395.606 377.268L396.824 377.632C397.45 377.819 397.93 378.099 398.266 378.472C398.612 378.845 398.784 379.303 398.784 379.844C398.784 380.301 398.663 380.707 398.42 381.062C398.178 381.407 397.842 381.678 397.412 381.874C396.983 382.07 396.479 382.168 395.9 382.168Z" fill="#9A9A9A"/>
<g filter="url(#filter7_d_0_1)">
<rect x="430" y="358" width="100" height="36" rx="5" fill="white"/>
<rect x="430.25" y="358.25" width="99.5" height="35.5" rx="4.75" stroke="#D3D3D3" stroke-width="0.5"/>
</g>
<path d="M450.158 382.168C449.607 382.168 449.08 382.065 448.576 381.86C448.081 381.655 447.652 381.365 447.288 380.992C446.933 380.609 446.691 380.157 446.56 379.634L448.212 379.046C448.371 379.522 448.627 379.877 448.982 380.11C449.337 380.334 449.729 380.446 450.158 380.446C450.513 380.446 450.825 380.371 451.096 380.222C451.376 380.063 451.591 379.849 451.74 379.578C451.889 379.298 451.964 378.976 451.964 378.612C451.964 378.248 451.885 377.931 451.726 377.66C451.577 377.389 451.367 377.179 451.096 377.03C450.825 376.871 450.513 376.792 450.158 376.792C449.794 376.792 449.463 376.871 449.164 377.03C448.875 377.189 448.665 377.417 448.534 377.716L446.98 377.366L447.806 371.57H453.49V373.18H448.562L449.276 372.354L448.688 376.722L448.142 376.274C448.403 375.891 448.721 375.611 449.094 375.434C449.477 375.257 449.939 375.168 450.48 375.168C451.171 375.168 451.768 375.317 452.272 375.616C452.785 375.915 453.182 376.321 453.462 376.834C453.742 377.347 453.882 377.94 453.882 378.612C453.882 379.284 453.719 379.891 453.392 380.432C453.065 380.973 452.622 381.398 452.062 381.706C451.502 382.014 450.867 382.168 450.158 382.168ZM459.569 382.168C458.739 382.168 458.011 381.944 457.385 381.496C456.76 381.048 456.27 380.418 455.915 379.606C455.57 378.794 455.397 377.851 455.397 376.778C455.397 375.695 455.57 374.753 455.915 373.95C456.261 373.147 456.746 372.522 457.371 372.074C457.997 371.626 458.725 371.402 459.555 371.402C460.405 371.402 461.137 371.626 461.753 372.074C462.379 372.522 462.869 373.152 463.223 373.964C463.578 374.767 463.755 375.705 463.755 376.778C463.755 377.851 463.578 378.794 463.223 379.606C462.878 380.409 462.393 381.039 461.767 381.496C461.142 381.944 460.409 382.168 459.569 382.168ZM459.583 380.432C460.059 380.432 460.465 380.287 460.801 379.998C461.137 379.699 461.394 379.279 461.571 378.738C461.758 378.187 461.851 377.534 461.851 376.778C461.851 376.022 461.758 375.373 461.571 374.832C461.394 374.281 461.133 373.861 460.787 373.572C460.451 373.283 460.041 373.138 459.555 373.138C459.089 373.138 458.687 373.283 458.351 373.572C458.015 373.861 457.754 374.281 457.567 374.832C457.39 375.373 457.301 376.022 457.301 376.778C457.301 377.525 457.39 378.173 457.567 378.724C457.754 379.265 458.015 379.685 458.351 379.984C458.697 380.283 459.107 380.432 459.583 380.432ZM469.481 382.168C468.651 382.168 467.923 381.944 467.297 381.496C466.672 381.048 466.182 380.418 465.827 379.606C465.482 378.794 465.309 377.851 465.309 376.778C465.309 375.695 465.482 374.753 465.827 373.95C466.173 373.147 466.658 372.522 467.283 372.074C467.909 371.626 468.637 371.402 469.467 371.402C470.317 371.402 471.049 371.626 471.665 372.074C472.291 372.522 472.781 373.152 473.135 373.964C473.49 374.767 473.667 375.705 473.667 376.778C473.667 377.851 473.49 378.794 473.135 379.606C472.79 380.409 472.305 381.039 471.679 381.496C471.054 381.944 470.321 382.168 469.481 382.168ZM469.495 380.432C469.971 380.432 470.377 380.287 470.713 379.998C471.049 379.699 471.306 379.279 471.483 378.738C471.67 378.187 471.763 377.534 471.763 376.778C471.763 376.022 471.67 375.373 471.483 374.832C471.306 374.281 471.045 373.861 470.699 373.572C470.363 373.283 469.953 373.138 469.467 373.138C469.001 373.138 468.599 373.283 468.263 373.572C467.927 373.861 467.666 374.281 467.479 374.832C467.302 375.373 467.213 376.022 467.213 376.778C467.213 377.525 467.302 378.173 467.479 378.724C467.666 379.265 467.927 379.685 468.263 379.984C468.609 380.283 469.019 380.432 469.495 380.432ZM479.394 382.168C478.563 382.168 477.835 381.944 477.21 381.496C476.584 381.048 476.094 380.418 475.74 379.606C475.394 378.794 475.222 377.851 475.222 376.778C475.222 375.695 475.394 374.753 475.74 373.95C476.085 373.147 476.57 372.522 477.196 372.074C477.821 371.626 478.549 371.402 479.38 371.402C480.229 371.402 480.962 371.626 481.578 372.074C482.203 372.522 482.693 373.152 483.048 373.964C483.402 374.767 483.58 375.705 483.58 376.778C483.58 377.851 483.402 378.794 483.048 379.606C482.702 380.409 482.217 381.039 481.592 381.496C480.966 381.944 480.234 382.168 479.394 382.168ZM479.408 380.432C479.884 380.432 480.29 380.287 480.626 379.998C480.962 379.699 481.218 379.279 481.396 378.738C481.582 378.187 481.676 377.534 481.676 376.778C481.676 376.022 481.582 375.373 481.396 374.832C481.218 374.281 480.957 373.861 480.612 373.572C480.276 373.283 479.865 373.138 479.38 373.138C478.913 373.138 478.512 373.283 478.176 373.572C477.84 373.861 477.578 374.281 477.392 374.832C477.214 375.373 477.126 376.022 477.126 376.778C477.126 377.525 477.214 378.173 477.392 378.724C477.578 379.265 477.84 379.685 478.176 379.984C478.521 380.283 478.932 380.432 479.408 380.432ZM489.306 382.168C488.475 382.168 487.747 381.944 487.122 381.496C486.496 381.048 486.006 380.418 485.652 379.606C485.306 378.794 485.134 377.851 485.134 376.778C485.134 375.695 485.306 374.753 485.652 373.95C485.997 373.147 486.482 372.522 487.108 372.074C487.733 371.626 488.461 371.402 489.292 371.402C490.141 371.402 490.874 371.626 491.49 372.074C492.115 372.522 492.605 373.152 492.96 373.964C493.314 374.767 493.492 375.705 493.492 376.778C493.492 377.851 493.314 378.794 492.96 379.606C492.614 380.409 492.129 381.039 491.504 381.496C490.878 381.944 490.146 382.168 489.306 382.168ZM489.32 380.432C489.796 380.432 490.202 380.287 490.538 379.998C490.874 379.699 491.13 379.279 491.308 378.738C491.494 378.187 491.588 377.534 491.588 376.778C491.588 376.022 491.494 375.373 491.308 374.832C491.13 374.281 490.869 373.861 490.524 373.572C490.188 373.283 489.777 373.138 489.292 373.138C488.825 373.138 488.424 373.283 488.088 373.572C487.752 373.861 487.49 374.281 487.304 374.832C487.126 375.373 487.038 376.022 487.038 376.778C487.038 377.525 487.126 378.173 487.304 378.724C487.49 379.265 487.752 379.685 488.088 379.984C488.433 380.283 488.844 380.432 489.32 380.432ZM497.758 382V371.57H499.662V377.002L499.144 376.82L503.582 371.57H505.976L501.818 376.498L501.93 375.154L506.102 382H503.862L501.062 377.408L499.662 379.074V382H497.758ZM509.867 382.168C509.055 382.168 508.346 381.977 507.739 381.594C507.142 381.202 506.731 380.675 506.507 380.012L507.879 379.354C508.075 379.783 508.346 380.119 508.691 380.362C509.046 380.605 509.438 380.726 509.867 380.726C510.203 380.726 510.469 380.651 510.665 380.502C510.861 380.353 510.959 380.157 510.959 379.914C510.959 379.765 510.917 379.643 510.833 379.55C510.759 379.447 510.651 379.363 510.511 379.298C510.381 379.223 510.236 379.163 510.077 379.116L508.831 378.766C508.187 378.579 507.697 378.295 507.361 377.912C507.035 377.529 506.871 377.077 506.871 376.554C506.871 376.087 506.988 375.681 507.221 375.336C507.464 374.981 507.795 374.706 508.215 374.51C508.645 374.314 509.135 374.216 509.685 374.216C510.404 374.216 511.039 374.389 511.589 374.734C512.14 375.079 512.532 375.565 512.765 376.19L511.365 376.848C511.235 376.503 511.015 376.227 510.707 376.022C510.399 375.817 510.054 375.714 509.671 375.714C509.363 375.714 509.121 375.784 508.943 375.924C508.766 376.064 508.677 376.246 508.677 376.47C508.677 376.61 508.715 376.731 508.789 376.834C508.864 376.937 508.967 377.021 509.097 377.086C509.237 377.151 509.396 377.212 509.573 377.268L510.791 377.632C511.417 377.819 511.897 378.099 512.233 378.472C512.579 378.845 512.751 379.303 512.751 379.844C512.751 380.301 512.63 380.707 512.387 381.062C512.145 381.407 511.809 381.678 511.379 381.874C510.95 382.07 510.446 382.168 509.867 382.168Z" fill="#9A9A9A"/>
<rect x="204.5" y="429.5" width="325" height="45" rx="4.5" stroke="#1A8FE3" stroke-opacity="0.5"/>
<path d="M227.908 458.168C227.161 458.168 226.471 458.033 225.836 457.762C225.211 457.491 224.66 457.113 224.184 456.628C223.717 456.143 223.353 455.573 223.092 454.92C222.831 454.267 222.7 453.553 222.7 452.778C222.7 452.003 222.826 451.289 223.078 450.636C223.339 449.973 223.703 449.404 224.17 448.928C224.646 448.443 225.201 448.069 225.836 447.808C226.471 447.537 227.161 447.402 227.908 447.402C228.655 447.402 229.322 447.528 229.91 447.78C230.507 448.032 231.011 448.368 231.422 448.788C231.833 449.199 232.127 449.651 232.304 450.146L230.596 450.944C230.4 450.421 230.069 449.992 229.602 449.656C229.135 449.311 228.571 449.138 227.908 449.138C227.255 449.138 226.676 449.292 226.172 449.6C225.677 449.908 225.29 450.333 225.01 450.874C224.739 451.415 224.604 452.05 224.604 452.778C224.604 453.506 224.739 454.145 225.01 454.696C225.29 455.237 225.677 455.662 226.172 455.97C226.676 456.278 227.255 456.432 227.908 456.432C228.571 456.432 229.135 456.264 229.602 455.928C230.069 455.583 230.4 455.149 230.596 454.626L232.304 455.424C232.127 455.919 231.833 456.376 231.422 456.796C231.011 457.207 230.507 457.538 229.91 457.79C229.322 458.042 228.655 458.168 227.908 458.168ZM236.412 458.168C235.824 458.168 235.31 458.037 234.872 457.776C234.442 457.515 234.111 457.151 233.878 456.684C233.654 456.217 233.542 455.671 233.542 455.046V450.384H235.376V454.892C235.376 455.209 235.436 455.489 235.558 455.732C235.688 455.965 235.87 456.152 236.104 456.292C236.346 456.423 236.617 456.488 236.916 456.488C237.214 456.488 237.48 456.423 237.714 456.292C237.947 456.152 238.129 455.961 238.26 455.718C238.39 455.475 238.456 455.186 238.456 454.85V450.384H240.29V458H238.554V456.502L238.708 456.768C238.53 457.235 238.236 457.585 237.826 457.818C237.424 458.051 236.953 458.168 236.412 458.168ZM244.893 458.168C244.081 458.168 243.371 457.977 242.765 457.594C242.167 457.202 241.757 456.675 241.533 456.012L242.905 455.354C243.101 455.783 243.371 456.119 243.717 456.362C244.071 456.605 244.463 456.726 244.893 456.726C245.229 456.726 245.495 456.651 245.691 456.502C245.887 456.353 245.985 456.157 245.985 455.914C245.985 455.765 245.943 455.643 245.859 455.55C245.784 455.447 245.677 455.363 245.537 455.298C245.406 455.223 245.261 455.163 245.103 455.116L243.857 454.766C243.213 454.579 242.723 454.295 242.387 453.912C242.06 453.529 241.897 453.077 241.897 452.554C241.897 452.087 242.013 451.681 242.247 451.336C242.489 450.981 242.821 450.706 243.241 450.51C243.67 450.314 244.16 450.216 244.711 450.216C245.429 450.216 246.064 450.389 246.615 450.734C247.165 451.079 247.557 451.565 247.791 452.19L246.391 452.848C246.26 452.503 246.041 452.227 245.733 452.022C245.425 451.817 245.079 451.714 244.697 451.714C244.389 451.714 244.146 451.784 243.969 451.924C243.791 452.064 243.703 452.246 243.703 452.47C243.703 452.61 243.74 452.731 243.815 452.834C243.889 452.937 243.992 453.021 244.123 453.086C244.263 453.151 244.421 453.212 244.599 453.268L245.817 453.632C246.442 453.819 246.923 454.099 247.259 454.472C247.604 454.845 247.777 455.303 247.777 455.844C247.777 456.301 247.655 456.707 247.413 457.062C247.17 457.407 246.834 457.678 246.405 457.874C245.975 458.07 245.471 458.168 244.893 458.168ZM252.658 458.084C251.799 458.084 251.132 457.851 250.656 457.384C250.189 456.908 249.956 456.241 249.956 455.382V452.022H248.64V450.384H248.78C249.153 450.384 249.443 450.286 249.648 450.09C249.853 449.894 249.956 449.609 249.956 449.236V448.648H251.79V450.384H253.54V452.022H251.79V455.284C251.79 455.536 251.832 455.751 251.916 455.928C252.009 456.105 252.149 456.241 252.336 456.334C252.532 456.427 252.779 456.474 253.078 456.474C253.143 456.474 253.218 456.469 253.302 456.46C253.395 456.451 253.484 456.441 253.568 456.432V458C253.437 458.019 253.288 458.037 253.12 458.056C252.952 458.075 252.798 458.084 252.658 458.084ZM258.625 458.168C257.878 458.168 257.197 457.995 256.581 457.65C255.974 457.305 255.489 456.833 255.125 456.236C254.77 455.639 254.593 454.957 254.593 454.192C254.593 453.427 254.77 452.745 255.125 452.148C255.489 451.551 255.974 451.079 256.581 450.734C257.188 450.389 257.869 450.216 258.625 450.216C259.372 450.216 260.048 450.389 260.655 450.734C261.262 451.079 261.742 451.551 262.097 452.148C262.461 452.736 262.643 453.417 262.643 454.192C262.643 454.957 262.461 455.639 262.097 456.236C261.733 456.833 261.248 457.305 260.641 457.65C260.034 457.995 259.362 458.168 258.625 458.168ZM258.625 456.488C259.036 456.488 259.395 456.39 259.703 456.194C260.02 455.998 260.268 455.727 260.445 455.382C260.632 455.027 260.725 454.631 260.725 454.192C260.725 453.744 260.632 453.352 260.445 453.016C260.268 452.671 260.02 452.4 259.703 452.204C259.395 451.999 259.036 451.896 258.625 451.896C258.205 451.896 257.836 451.999 257.519 452.204C257.202 452.4 256.95 452.671 256.763 453.016C256.586 453.352 256.497 453.744 256.497 454.192C256.497 454.631 256.586 455.027 256.763 455.382C256.95 455.727 257.202 455.998 257.519 456.194C257.836 456.39 258.205 456.488 258.625 456.488ZM264.034 458V450.384H265.756V452.148L265.56 451.854C265.7 451.303 265.98 450.893 266.4 450.622C266.82 450.351 267.314 450.216 267.884 450.216C268.509 450.216 269.06 450.379 269.536 450.706C270.012 451.033 270.32 451.462 270.46 451.994L269.942 452.036C270.175 451.429 270.525 450.977 270.992 450.678C271.458 450.37 271.995 450.216 272.602 450.216C273.143 450.216 273.624 450.337 274.044 450.58C274.473 450.823 274.809 451.163 275.052 451.602C275.294 452.031 275.416 452.531 275.416 453.1V458H273.582V453.534C273.582 453.198 273.521 452.909 273.4 452.666C273.278 452.423 273.11 452.237 272.896 452.106C272.681 451.966 272.42 451.896 272.112 451.896C271.822 451.896 271.566 451.966 271.342 452.106C271.118 452.237 270.945 452.423 270.824 452.666C270.702 452.909 270.642 453.198 270.642 453.534V458H268.808V453.534C268.808 453.198 268.747 452.909 268.626 452.666C268.504 452.423 268.332 452.237 268.108 452.106C267.893 451.966 267.636 451.896 267.338 451.896C267.048 451.896 266.792 451.966 266.568 452.106C266.344 452.237 266.171 452.423 266.05 452.666C265.928 452.909 265.868 453.198 265.868 453.534V458H264.034ZM278.756 458L282.354 447.57H284.818L288.416 458H286.344L285.602 455.76H281.57L280.814 458H278.756ZM282.116 454.08H285.056L283.32 448.886H283.852L282.116 454.08ZM289.422 458V450.384H291.144V452.148L290.948 451.854C291.088 451.303 291.368 450.893 291.788 450.622C292.208 450.351 292.703 450.216 293.272 450.216C293.898 450.216 294.448 450.379 294.924 450.706C295.4 451.033 295.708 451.462 295.848 451.994L295.33 452.036C295.564 451.429 295.914 450.977 296.38 450.678C296.847 450.37 297.384 450.216 297.99 450.216C298.532 450.216 299.012 450.337 299.432 450.58C299.862 450.823 300.198 451.163 300.44 451.602C300.683 452.031 300.804 452.531 300.804 453.1V458H298.97V453.534C298.97 453.198 298.91 452.909 298.788 452.666C298.667 452.423 298.499 452.237 298.284 452.106C298.07 451.966 297.808 451.896 297.5 451.896C297.211 451.896 296.954 451.966 296.73 452.106C296.506 452.237 296.334 452.423 296.212 452.666C296.091 452.909 296.03 453.198 296.03 453.534V458H294.196V453.534C294.196 453.198 294.136 452.909 294.014 452.666C293.893 452.423 293.72 452.237 293.496 452.106C293.282 451.966 293.025 451.896 292.726 451.896C292.437 451.896 292.18 451.966 291.956 452.106C291.732 452.237 291.56 452.423 291.438 452.666C291.317 452.909 291.256 453.198 291.256 453.534V458H289.422ZM306.08 458.168C305.333 458.168 304.652 457.995 304.036 457.65C303.429 457.305 302.944 456.833 302.58 456.236C302.225 455.639 302.048 454.957 302.048 454.192C302.048 453.427 302.225 452.745 302.58 452.148C302.944 451.551 303.429 451.079 304.036 450.734C304.643 450.389 305.324 450.216 306.08 450.216C306.827 450.216 307.503 450.389 308.11 450.734C308.717 451.079 309.197 451.551 309.552 452.148C309.916 452.736 310.098 453.417 310.098 454.192C310.098 454.957 309.916 455.639 309.552 456.236C309.188 456.833 308.703 457.305 308.096 457.65C307.489 457.995 306.817 458.168 306.08 458.168ZM306.08 456.488C306.491 456.488 306.85 456.39 307.158 456.194C307.475 455.998 307.723 455.727 307.9 455.382C308.087 455.027 308.18 454.631 308.18 454.192C308.18 453.744 308.087 453.352 307.9 453.016C307.723 452.671 307.475 452.4 307.158 452.204C306.85 451.999 306.491 451.896 306.08 451.896C305.66 451.896 305.291 451.999 304.974 452.204C304.657 452.4 304.405 452.671 304.218 453.016C304.041 453.352 303.952 453.744 303.952 454.192C303.952 454.631 304.041 455.027 304.218 455.382C304.405 455.727 304.657 455.998 304.974 456.194C305.291 456.39 305.66 456.488 306.08 456.488ZM314.205 458.168C313.617 458.168 313.103 458.037 312.665 457.776C312.235 457.515 311.904 457.151 311.671 456.684C311.447 456.217 311.335 455.671 311.335 455.046V450.384H313.169V454.892C313.169 455.209 313.229 455.489 313.351 455.732C313.481 455.965 313.663 456.152 313.897 456.292C314.139 456.423 314.41 456.488 314.709 456.488C315.007 456.488 315.273 456.423 315.507 456.292C315.74 456.152 315.922 455.961 316.053 455.718C316.183 455.475 316.249 455.186 316.249 454.85V450.384H318.083V458H316.347V456.502L316.501 456.768C316.323 457.235 316.029 457.585 315.619 457.818C315.217 458.051 314.746 458.168 314.205 458.168ZM319.788 458V450.384H321.51V451.882L321.37 451.616C321.547 451.159 321.836 450.813 322.238 450.58C322.648 450.337 323.124 450.216 323.666 450.216C324.226 450.216 324.72 450.337 325.15 450.58C325.588 450.823 325.929 451.163 326.172 451.602C326.414 452.031 326.536 452.531 326.536 453.1V458H324.702V453.534C324.702 453.198 324.636 452.909 324.506 452.666C324.375 452.423 324.193 452.237 323.96 452.106C323.736 451.966 323.47 451.896 323.162 451.896C322.863 451.896 322.597 451.966 322.364 452.106C322.13 452.237 321.948 452.423 321.818 452.666C321.687 452.909 321.622 453.198 321.622 453.534V458H319.788ZM331.558 458.084C330.7 458.084 330.032 457.851 329.556 457.384C329.09 456.908 328.856 456.241 328.856 455.382V452.022H327.54V450.384H327.68C328.054 450.384 328.343 450.286 328.548 450.09C328.754 449.894 328.856 449.609 328.856 449.236V448.648H330.69V450.384H332.44V452.022H330.69V455.284C330.69 455.536 330.732 455.751 330.816 455.928C330.91 456.105 331.05 456.241 331.236 456.334C331.432 456.427 331.68 456.474 331.978 456.474C332.044 456.474 332.118 456.469 332.202 456.46C332.296 456.451 332.384 456.441 332.468 456.432V458C332.338 458.019 332.188 458.037 332.02 458.056C331.852 458.075 331.698 458.084 331.558 458.084Z" fill="#1A8FE3" fill-opacity="0.5"/>
<rect x="243" y="511" width="250" height="44" rx="10" fill="#1A8FE3"/>
<path d="M320.008 539V528.57H323.41C324.511 528.57 325.468 528.794 326.28 529.242C327.101 529.681 327.736 530.292 328.184 531.076C328.632 531.851 328.856 532.751 328.856 533.778C328.856 534.795 328.632 535.701 328.184 536.494C327.736 537.278 327.101 537.894 326.28 538.342C325.468 538.781 324.511 539 323.41 539H320.008ZM321.912 537.32H323.452C324.161 537.32 324.773 537.175 325.286 536.886C325.809 536.587 326.215 536.177 326.504 535.654C326.793 535.122 326.938 534.497 326.938 533.778C326.938 533.05 326.793 532.425 326.504 531.902C326.215 531.379 325.809 530.973 325.286 530.684C324.773 530.395 324.161 530.25 323.452 530.25H321.912V537.32ZM335.509 539.168C334.744 539.168 334.03 539.033 333.367 538.762C332.705 538.491 332.126 538.113 331.631 537.628C331.137 537.143 330.749 536.573 330.469 535.92C330.199 535.257 330.063 534.543 330.063 533.778C330.063 533.003 330.199 532.289 330.469 531.636C330.74 530.983 331.123 530.413 331.617 529.928C332.112 529.443 332.691 529.069 333.353 528.808C334.016 528.537 334.735 528.402 335.509 528.402C336.284 528.402 337.003 528.537 337.665 528.808C338.328 529.079 338.907 529.457 339.401 529.942C339.896 530.418 340.279 530.983 340.549 531.636C340.829 532.289 340.969 533.003 340.969 533.778C340.969 534.543 340.829 535.257 340.549 535.92C340.269 536.573 339.882 537.143 339.387 537.628C338.893 538.113 338.314 538.491 337.651 538.762C336.998 539.033 336.284 539.168 335.509 539.168ZM335.509 537.432C336.023 537.432 336.494 537.343 336.923 537.166C337.353 536.979 337.726 536.723 338.043 536.396C338.37 536.069 338.617 535.682 338.785 535.234C338.963 534.786 339.051 534.301 339.051 533.778C339.051 533.255 338.963 532.775 338.785 532.336C338.617 531.888 338.37 531.501 338.043 531.174C337.726 530.838 337.353 530.581 336.923 530.404C336.494 530.227 336.023 530.138 335.509 530.138C335.005 530.138 334.539 530.227 334.109 530.404C333.68 530.581 333.302 530.838 332.975 531.174C332.658 531.501 332.411 531.888 332.233 532.336C332.056 532.775 331.967 533.255 331.967 533.778C331.967 534.301 332.056 534.786 332.233 535.234C332.411 535.682 332.658 536.069 332.975 536.396C333.302 536.723 333.68 536.979 334.109 537.166C334.539 537.343 335.005 537.432 335.509 537.432ZM342.662 539V528.57H344.146L349.886 536.298L349.116 536.452V528.57H351.02V539H349.522L343.866 531.216L344.566 531.062V539H342.662ZM352.185 539L355.783 528.57H358.247L361.845 539H359.773L359.031 536.76H354.999L354.243 539H352.185ZM355.545 535.08H358.485L356.749 529.886H357.281L355.545 535.08ZM364.157 539V530.25H361.455V528.57H368.735V530.25H366.075V539H364.157ZM369.897 539V528.57H376.827V530.25H371.801V532.924H376.547V534.604H371.801V537.32H376.827V539H369.897ZM380.711 539V528.57H382.195L387.935 536.298L387.165 536.452V528.57H389.069V539H387.571L381.915 531.216L382.615 531.062V539H380.711ZM396.226 539.168C395.461 539.168 394.747 539.033 394.084 538.762C393.421 538.491 392.843 538.113 392.348 537.628C391.853 537.143 391.466 536.573 391.186 535.92C390.915 535.257 390.78 534.543 390.78 533.778C390.78 533.003 390.915 532.289 391.186 531.636C391.457 530.983 391.839 530.413 392.334 529.928C392.829 529.443 393.407 529.069 394.07 528.808C394.733 528.537 395.451 528.402 396.226 528.402C397.001 528.402 397.719 528.537 398.382 528.808C399.045 529.079 399.623 529.457 400.118 529.942C400.613 530.418 400.995 530.983 401.266 531.636C401.546 532.289 401.686 533.003 401.686 533.778C401.686 534.543 401.546 535.257 401.266 535.92C400.986 536.573 400.599 537.143 400.104 537.628C399.609 538.113 399.031 538.491 398.368 538.762C397.715 539.033 397.001 539.168 396.226 539.168ZM396.226 537.432C396.739 537.432 397.211 537.343 397.64 537.166C398.069 536.979 398.443 536.723 398.76 536.396C399.087 536.069 399.334 535.682 399.502 535.234C399.679 534.786 399.768 534.301 399.768 533.778C399.768 533.255 399.679 532.775 399.502 532.336C399.334 531.888 399.087 531.501 398.76 531.174C398.443 530.838 398.069 530.581 397.64 530.404C397.211 530.227 396.739 530.138 396.226 530.138C395.722 530.138 395.255 530.227 394.826 530.404C394.397 530.581 394.019 530.838 393.692 531.174C393.375 531.501 393.127 531.888 392.95 532.336C392.773 532.775 392.684 533.255 392.684 533.778C392.684 534.301 392.773 534.786 392.95 535.234C393.127 535.682 393.375 536.069 393.692 536.396C394.019 536.723 394.397 536.979 394.826 537.166C395.255 537.343 395.722 537.432 396.226 537.432ZM405.052 539L402.252 528.57H404.296L406.494 537.46H405.962L408.258 528.57H410.232L412.514 537.46H411.982L414.18 528.57H416.224L413.424 539H411.24L408.93 530.348H409.546L407.236 539H405.052Z" fill="white"/>
<defs>
<filter id="filter0_f_0_1" x="0.850895" y="0.850895" width="726.361" height="711.298" filterUnits="userSpaceOnUse" color-interpolation-filters="sRGB">
<feFlood flood-opacity="0" result="BackgroundImageFix"/>
<feBlend mode="normal" in="SourceGraphic" in2="BackgroundImageFix" result="shape"/>
<feGaussianBlur stdDeviation="25.0746" result="effect1_foregroundBlur_0_1"/>
</filter>
<clipPath id="paint0_diamond_0_1_clip_path"><path fill-rule="evenodd" clip-rule="evenodd" d="M361.102 51.6459C404.367 54.0961 447.435 67.1715 482.979 91.9515C516.73 115.481 528.955 158.731 557.374 188.478C588.883 221.459 640.078 235.622 659.612 276.837C679.474 318.744 684.164 372.214 664.324 414.132C644.269 456.503 579.347 459.359 554.429 499.067C524.991 545.977 561.378 633.058 511.64 657.437C462.104 681.716 415.726 601.568 361.102 593.825C316.514 587.505 274.214 624.994 229.81 617.486C182.197 609.435 129.096 591.236 103.541 550.276C77.5801 508.666 106.14 453.374 97.3217 405.133C88.9629 359.403 40.249 319.343 53.1666 274.686C66.2921 229.309 129.1 220.281 160.898 185.342C190.248 153.093 196.123 101.978 232.389 77.7601C269.255 53.1412 316.839 49.1392 361.102 51.6459Z"/></clipPath><filter id="filter1_d_0_1" x="105" y="52" width="522" height="604" filterUnits="userSpaceOnUse" color-interpolation-filters="sRGB">
<feFlood flood-opacity="0" result="BackgroundImageFix"/>
<feColorMatrix in="SourceAlpha" type="matrix" values="0 0 0 0 0 0 0 0 0 0 0 0 0 0 0 0 0 0 127 0" result="hardAlpha"/>
<feOffset dx="2" dy="2"/>
<feGaussianBlur stdDeviation="32.5"/>
<feComposite in2="hardAlpha" operator="out"/>
<feColorMatrix type="matrix" values="0 0 0 0 0 0 0 0 0 0 0 0 0 0 0 0 0 0 0.16 0"/>
<feBlend mode="normal" in2="BackgroundImageFix" result="effect1_dropShadow_0_1"/>
<feBlend mode="normal" in="SourceGraphic" in2="effect1_dropShadow_0_1" result="shape"/>
</filter>
<filter id="filter2_d_0_1" x="146" y="245" width="220" height="156" filterUnits="userSpaceOnUse" color-interpolation-filters="sRGB">
<feFlood flood-opacity="0" result="BackgroundImageFix"/>
<feColorMatrix in="SourceAlpha" type="matrix" values="0 0 0 0 0 0 0 0 0 0 0 0 0 0 0 0 0 0 127 0" result="hardAlpha"/>
<feOffset dx="2" dy="2"/>
<feGaussianBlur stdDeviation="30"/>
<feComposite in2="hardAlpha" operator="out"/>
<feColorMatrix type="matrix" values="0 0 0 0 0 0 0 0 0 0 0 0 0 0 0 0 0 0 0.18 0"/>
<feBlend mode="normal" in2="BackgroundImageFix" result="effect1_dropShadow_0_1"/>
<feBlend mode="normal" in="SourceGraphic" in2="effect1_dropShadow_0_1" result="shape"/>
</filter>
<filter id="filter3_d_0_1" x="259" y="245" width="220" height="156" filterUnits="userSpaceOnUse" color-interpolation-filters="sRGB">
<feFlood flood-opacity="0" result="BackgroundImageFix"/>
<feColorMatrix in="SourceAlpha" type="matrix" values="0 0 0 0 0 0 0 0 0 0 0 0 0 0 0 0 0 0 127 0" result="hardAlpha"/>
<feOffset dx="2" dy="2"/>
<feGaussianBlur stdDeviation="30"/>
<feComposite in2="hardAlpha" operator="out"/>
<feColorMatrix type="matrix" values="0 0 0 0 0 0 0 0 0 0 0 0 0 0 0 0 0 0 0.15 0"/>
<feBlend mode="normal" in2="BackgroundImageFix" result="effect1_dropShadow_0_1"/>
<feBlend mode="normal" in="SourceGraphic" in2="effect1_dropShadow_0_1" result="shape"/>
</filter>
<filter id="filter4_d_0_1" x="372" y="245" width="220" height="156" filterUnits="userSpaceOnUse" color-interpolation-filters="sRGB">
<feFlood flood-opacity="0" result="BackgroundImageFix"/>
<feColorMatrix in="SourceAlpha" type="matrix" values="0 0 0 0 0 0 0 0 0 0 0 0 0 0 0 0 0 0 127 0" result="hardAlpha"/>
<feOffset dx="2" dy="2"/>
<feGaussianBlur stdDeviation="30"/>
<feComposite in2="hardAlpha" operator="out"/>
<feColorMatrix type="matrix" values="0 0 0 0 0 0 0 0 0 0 0 0 0 0 0 0 0 0 0.15 0"/>
<feBlend mode="normal" in2="BackgroundImageFix" result="effect1_dropShadow_0_1"/>
<feBlend mode="normal" in="SourceGraphic" in2="effect1_dropShadow_0_1" result="shape"/>
</filter>
<filter id="filter5_d_0_1" x="146" y="300" width="220" height="156" filterUnits="userSpaceOnUse" color-interpolation-filters="sRGB">
<feFlood flood-opacity="0" result="BackgroundImageFix"/>
<feColorMatrix in="SourceAlpha" type="matrix" values="0 0 0 0 0 0 0 0 0 0 0 0 0 0 0 0 0 0 127 0" result="hardAlpha"/>
<feOffset dx="2" dy="2"/>
<feGaussianBlur stdDeviation="30"/>
<feComposite in2="hardAlpha" operator="out"/>
<feColorMatrix type="matrix" values="0 0 0 0 0 0 0 0 0 0 0 0 0 0 0 0 0 0 0.15 0"/>
<feBlend mode="normal" in2="BackgroundImageFix" result="effect1_dropShadow_0_1"/>
<feBlend mode="normal" in="SourceGraphic" in2="effect1_dropShadow_0_1" result="shape"/>
</filter>
<filter id="filter6_d_0_1" x="259" y="300" width="220" height="156" filterUnits="userSpaceOnUse" color-interpolation-filters="sRGB">
<feFlood flood-opacity="0" result="BackgroundImageFix"/>
<feColorMatrix in="SourceAlpha" type="matrix" values="0 0 0 0 0 0 0 0 0 0 0 0 0 0 0 0 0 0 127 0" result="hardAlpha"/>
<feOffset dx="2" dy="2"/>
<feGaussianBlur stdDeviation="30"/>
<feComposite in2="hardAlpha" operator="out"/>
<feColorMatrix type="matrix" values="0 0 0 0 0 0 0 0 0 0 0 0 0 0 0 0 0 0 0.15 0"/>
<feBlend mode="normal" in2="BackgroundImageFix" result="effect1_dropShadow_0_1"/>
<feBlend mode="normal" in="SourceGraphic" in2="effect1_dropShadow_0_1" result="shape"/>
</filter>
<filter id="filter7_d_0_1" x="372" y="300" width="220" height="156" filterUnits="userSpaceOnUse" color-interpolation-filters="sRGB">
<feFlood flood-opacity="0" result="BackgroundImageFix"/>
<feColorMatrix in="SourceAlpha" type="matrix" values="0 0 0 0 0 0 0 0 0 0 0 0 0 0 0 0 0 0 127 0" result="hardAlpha"/>
<feOffset dx="2" dy="2"/>
<feGaussianBlur stdDeviation="30"/>
<feComposite in2="hardAlpha" operator="out"/>
<feColorMatrix type="matrix" values="0 0 0 0 0 0 0 0 0 0 0 0 0 0 0 0 0 0 0.15 0"/>
<feBlend mode="normal" in2="BackgroundImageFix" result="effect1_dropShadow_0_1"/>
<feBlend mode="normal" in="SourceGraphic" in2="effect1_dropShadow_0_1" result="shape"/>
</filter>
<linearGradient id="paint0_diamond_0_1" x1="0" y1="0" x2="500" y2="500" gradientUnits="userSpaceOnUse">
<stop stop-color="#17B3A9"/>
<stop offset="1" stop-color="#0945DF"/>
</linearGradient>
</defs>
</svg>
