<svg viewBox="0 0 39 44" fill="none" xmlns="http://www.w3.org/2000/svg">
<path d="M9.17128 0.0793269C7.73411 0.221886 6.19782 0.697087 5.00018 1.3782C2.51403 2.78796 0.84559 5.02931 0.217859 7.82506C-0.071228 9.08434 -0.071228 11.1198 0.209599 12.4424C0.986003 16.1252 3.27392 19.4991 8.34532 24.4491C9.71642 25.7876 13.6893 29.4308 15.3908 30.9039C15.7872 31.2444 16.5223 31.886 17.0179 32.3295C18.7029 33.8263 19.2398 34.1352 19.8592 33.9531C20.2061 33.8501 21.0899 33.2561 21.9407 32.5275C22.2297 32.282 22.6592 31.9335 22.8823 31.7434C24.3029 30.5792 27.2516 27.8784 29.6634 25.55C32.579 22.7305 34.2475 20.9089 35.6103 19.0714C38.8068 14.7471 39.7484 10.5891 38.4103 6.74003C36.8658 2.30484 32.579 -0.348351 27.6233 0.0714075C26.0374 0.198127 24.9472 0.483246 23.6256 1.11684C22.0067 1.88508 20.7678 2.91468 15.9442 7.53203C10.8067 12.4503 10.9719 12.3078 10.2698 12.4107C9.3117 12.5612 8.27099 12.2365 7.66803 11.6029C6.47865 10.3357 6.53647 8.20522 7.80019 6.93011C9.25388 5.45699 11.517 5.68667 13.6315 7.51619L13.8793 7.73003L16.1424 5.59163L18.4055 3.45324L17.8356 2.90676C17.1088 2.20188 15.5807 1.21188 14.6309 0.831722C13.6315 0.427804 12.4999 0.166444 11.3601 0.0634844C10.3029 -0.0236353 10.2203 -0.0236328 9.17128 0.0793269ZM29.2009 6.09059C29.8699 6.19355 30.7785 6.65291 31.2658 7.12811C32.323 8.1577 32.8599 10.2169 32.546 11.9831C32.1826 13.9947 31.1997 15.745 29.1678 18.0418C28.4079 18.9051 22.1471 24.9797 20.0079 26.928L18.7855 28.0448L17.9595 27.2607C17.5052 26.833 17.117 26.3974 17.0923 26.3024C17.0675 26.2152 17.0923 26.0489 17.1583 25.938C17.2162 25.8351 19.3471 23.7363 21.8828 21.2811C26.979 16.3549 27.8215 15.4916 28.1684 14.8184C28.3832 14.4145 28.4079 14.2719 28.4162 13.6462C28.4162 12.7592 28.218 12.2761 27.6233 11.7455C27.0203 11.2069 26.5826 11.0406 25.7318 11.0327C25.0793 11.0327 24.9719 11.0564 24.402 11.3257C23.8156 11.6029 23.5513 11.8405 20.0657 15.1669C16.2498 18.818 15.4156 19.5229 14.2922 20.0535C12.3347 20.9722 10.8562 20.9247 9.21258 19.8951C8.62615 19.5229 7.57718 18.6358 7.64326 18.5646C7.66804 18.5408 7.93234 18.5566 8.22143 18.5962C9.85683 18.8259 11.9217 18.4933 13.425 17.7646C14.4905 17.2498 15.7459 16.2757 17.1336 14.8897C22.8575 9.17938 24.9967 7.12019 25.6162 6.74003C26.2191 6.36779 26.946 6.10643 27.6068 6.01139C28.0941 5.94803 28.3832 5.95595 29.2009 6.09059Z" fill="white"/>
<path d="M29.97 38.67H27.19L26.73 40H25.26L27.77 33.01H29.4L31.91 40H30.43L29.97 38.67ZM29.59 37.55L28.58 34.63L27.57 37.55H29.59ZM34.2482 33.02V40H32.8482V33.02H34.2482Z" fill="white"/>
</svg>
